solid base1.5m
   facet normal -8.660254e-001 -5.000000e-001 0.000000e+000
      outer loop
         vertex -1.448889e+003 -3.882286e+002 -1.000000e+002
         vertex -1.060660e+003 -1.060660e+003 -1.000000e+002
         vertex -1.448889e+003 -3.882286e+002 0.000000e+000
      endloop
   endfacet
   facet normal -8.660254e-001 -5.000000e-001 0.000000e+000
      outer loop
         vertex -1.448889e+003 -3.882286e+002 0.000000e+000
         vertex -1.060660e+003 -1.060660e+003 -1.000000e+002
         vertex -1.060660e+003 -1.060660e+003 0.000000e+000
      endloop
   endfacet
   facet normal -8.660254e-001 5.000000e-001 0.000000e+000
      outer loop
         vertex -3.882286e+002 1.448889e+003 -1.000000e+002
         vertex -1.448889e+003 -3.882286e+002 -1.000000e+002
         vertex -3.882286e+002 1.448889e+003 0.000000e+000
      endloop
   endfacet
   facet normal -8.660254e-001 5.000000e-001 0.000000e+000
      outer loop
         vertex -3.882286e+002 1.448889e+003 0.000000e+000
         vertex -1.448889e+003 -3.882286e+002 -1.000000e+002
         vertex -1.448889e+003 -3.882286e+002 0.000000e+000
      endloop
   endfacet
   facet normal -6.863316e-015 1.000000e+000 0.000000e+000
      outer loop
         vertex 3.882286e+002 1.448889e+003 -1.000000e+002
         vertex -3.882286e+002 1.448889e+003 -1.000000e+002
         vertex 3.882286e+002 1.448889e+003 0.000000e+000
      endloop
   endfacet
   facet normal -6.863316e-015 1.000000e+000 0.000000e+000
      outer loop
         vertex 3.882286e+002 1.448889e+003 0.000000e+000
         vertex -3.882286e+002 1.448889e+003 -1.000000e+002
         vertex -3.882286e+002 1.448889e+003 0.000000e+000
      endloop
   endfacet
   facet normal 8.660254e-001 5.000000e-001 0.000000e+000
      outer loop
         vertex 1.448889e+003 -3.882286e+002 -1.000000e+002
         vertex 3.882286e+002 1.448889e+003 -1.000000e+002
         vertex 1.448889e+003 -3.882286e+002 0.000000e+000
      endloop
   endfacet
   facet normal 8.660254e-001 5.000000e-001 0.000000e+000
      outer loop
         vertex 1.448889e+003 -3.882286e+002 0.000000e+000
         vertex 3.882286e+002 1.448889e+003 -1.000000e+002
         vertex 3.882286e+002 1.448889e+003 0.000000e+000
      endloop
   endfacet
   facet normal 8.660254e-001 -5.000000e-001 0.000000e+000
      outer loop
         vertex 1.060660e+003 -1.060660e+003 -1.000000e+002
         vertex 1.448889e+003 -3.882286e+002 -1.000000e+002
         vertex 1.060660e+003 -1.060660e+003 0.000000e+000
      endloop
   endfacet
   facet normal 8.660254e-001 -5.000000e-001 0.000000e+000
      outer loop
         vertex 1.060660e+003 -1.060660e+003 0.000000e+000
         vertex 1.448889e+003 -3.882286e+002 -1.000000e+002
         vertex 1.448889e+003 -3.882286e+002 0.000000e+000
      endloop
   endfacet
   facet normal -2.616821e-015 -1.000000e+000 0.000000e+000
      outer loop
         vertex -1.060660e+003 -1.060660e+003 -1.000000e+002
         vertex 1.060660e+003 -1.060660e+003 -1.000000e+002
         vertex -1.060660e+003 -1.060660e+003 0.000000e+000
      endloop
   endfacet
   facet normal -2.616821e-015 -1.000000e+000 0.000000e+000
      outer loop
         vertex -1.060660e+003 -1.060660e+003 0.000000e+000
         vertex 1.060660e+003 -1.060660e+003 -1.000000e+002
         vertex 1.060660e+003 -1.060660e+003 0.000000e+000
      endloop
   endfacet
   facet normal 0.000000e+000 0.000000e+000 -1.000000e+000
      outer loop
         vertex 3.882286e+002 1.448889e+003 -1.000000e+002
         vertex 1.448889e+003 -3.882286e+002 -1.000000e+002
         vertex -3.882286e+002 1.448889e+003 -1.000000e+002
      endloop
   endfacet
   facet normal 0.000000e+000 0.000000e+000 -1.000000e+000
      outer loop
         vertex -3.882286e+002 1.448889e+003 -1.000000e+002
         vertex 1.448889e+003 -3.882286e+002 -1.000000e+002
         vertex 1.060660e+003 -1.060660e+003 -1.000000e+002
      endloop
   endfacet
   facet normal 0.000000e+000 0.000000e+000 -1.000000e+000
      outer loop
         vertex -3.882286e+002 1.448889e+003 -1.000000e+002
         vertex 1.060660e+003 -1.060660e+003 -1.000000e+002
         vertex -1.448889e+003 -3.882286e+002 -1.000000e+002
      endloop
   endfacet
   facet normal 0.000000e+000 0.000000e+000 -1.000000e+000
      outer loop
         vertex -1.448889e+003 -3.882286e+002 -1.000000e+002
         vertex 1.060660e+003 -1.060660e+003 -1.000000e+002
         vertex -1.060660e+003 -1.060660e+003 -1.000000e+002
      endloop
   endfacet
   facet normal 0.000000e+000 0.000000e+000 1.000000e+000
      outer loop
         vertex -1.448889e+003 -3.882286e+002 0.000000e+000
         vertex -1.060660e+003 -1.060660e+003 0.000000e+000
         vertex -3.882286e+002 1.448889e+003 0.000000e+000
      endloop
   endfacet
   facet normal 0.000000e+000 0.000000e+000 1.000000e+000
      outer loop
         vertex -3.882286e+002 1.448889e+003 0.000000e+000
         vertex -1.060660e+003 -1.060660e+003 0.000000e+000
         vertex 1.060660e+003 -1.060660e+003 0.000000e+000
      endloop
   endfacet
   facet normal 0.000000e+000 0.000000e+000 1.000000e+000
      outer loop
         vertex -3.882286e+002 1.448889e+003 0.000000e+000
         vertex 1.060660e+003 -1.060660e+003 0.000000e+000
         vertex 3.882286e+002 1.448889e+003 0.000000e+000
      endloop
   endfacet
   facet normal 0.000000e+000 0.000000e+000 1.000000e+000
      outer loop
         vertex 3.882286e+002 1.448889e+003 0.000000e+000
         vertex 1.060660e+003 -1.060660e+003 0.000000e+000
         vertex 1.448889e+003 -3.882286e+002 0.000000e+000
      endloop
   endfacet
endsolid