solid lowerTube100
   facet normal 0.000000e+000 0.000000e+000 1.000000e+000
      outer loop
         vertex 2.954423e+001 5.209445e+000 1.000000e+003
         vertex 3.939231e+001 6.945927e+000 1.000000e+003
         vertex 2.819078e+001 1.026060e+001 1.000000e+003
      endloop
   endfacet
   facet normal 0.000000e+000 0.000000e+000 1.000000e+000
      outer loop
         vertex 2.819078e+001 1.026060e+001 1.000000e+003
         vertex 3.939231e+001 6.945927e+000 1.000000e+003
         vertex 3.758771e+001 1.368081e+001 1.000000e+003
      endloop
   endfacet
   facet normal 0.000000e+000 0.000000e+000 1.000000e+000
      outer loop
         vertex 2.819078e+001 1.026060e+001 1.000000e+003
         vertex 3.758771e+001 1.368081e+001 1.000000e+003
         vertex 2.598076e+001 1.500000e+001 1.000000e+003
      endloop
   endfacet
   facet normal 0.000000e+000 0.000000e+000 1.000000e+000
      outer loop
         vertex 2.598076e+001 1.500000e+001 1.000000e+003
         vertex 3.758771e+001 1.368081e+001 1.000000e+003
         vertex 3.464102e+001 2.000000e+001 1.000000e+003
      endloop
   endfacet
   facet normal 0.000000e+000 0.000000e+000 1.000000e+000
      outer loop
         vertex 2.598076e+001 1.500000e+001 1.000000e+003
         vertex 3.464102e+001 2.000000e+001 1.000000e+003
         vertex 2.298133e+001 1.928363e+001 1.000000e+003
      endloop
   endfacet
   facet normal 0.000000e+000 0.000000e+000 1.000000e+000
      outer loop
         vertex 2.298133e+001 1.928363e+001 1.000000e+003
         vertex 3.464102e+001 2.000000e+001 1.000000e+003
         vertex 3.064178e+001 2.571150e+001 1.000000e+003
      endloop
   endfacet
   facet normal 0.000000e+000 0.000000e+000 1.000000e+000
      outer loop
         vertex 2.298133e+001 1.928363e+001 1.000000e+003
         vertex 3.064178e+001 2.571150e+001 1.000000e+003
         vertex 1.928363e+001 2.298133e+001 1.000000e+003
      endloop
   endfacet
   facet normal 0.000000e+000 0.000000e+000 1.000000e+000
      outer loop
         vertex 1.928363e+001 2.298133e+001 1.000000e+003
         vertex 3.064178e+001 2.571150e+001 1.000000e+003
         vertex 2.571150e+001 3.064178e+001 1.000000e+003
      endloop
   endfacet
   facet normal 0.000000e+000 0.000000e+000 1.000000e+000
      outer loop
         vertex 1.928363e+001 2.298133e+001 1.000000e+003
         vertex 2.571150e+001 3.064178e+001 1.000000e+003
         vertex 1.500000e+001 2.598076e+001 1.000000e+003
      endloop
   endfacet
   facet normal 0.000000e+000 0.000000e+000 1.000000e+000
      outer loop
         vertex 1.500000e+001 2.598076e+001 1.000000e+003
         vertex 2.571150e+001 3.064178e+001 1.000000e+003
         vertex 2.000000e+001 3.464102e+001 1.000000e+003
      endloop
   endfacet
   facet normal 0.000000e+000 0.000000e+000 1.000000e+000
      outer loop
         vertex 1.500000e+001 2.598076e+001 1.000000e+003
         vertex 2.000000e+001 3.464102e+001 1.000000e+003
         vertex 1.026060e+001 2.819078e+001 1.000000e+003
      endloop
   endfacet
   facet normal 0.000000e+000 0.000000e+000 1.000000e+000
      outer loop
         vertex 1.026060e+001 2.819078e+001 1.000000e+003
         vertex 2.000000e+001 3.464102e+001 1.000000e+003
         vertex 1.368081e+001 3.758771e+001 1.000000e+003
      endloop
   endfacet
   facet normal 0.000000e+000 0.000000e+000 1.000000e+000
      outer loop
         vertex 1.026060e+001 2.819078e+001 1.000000e+003
         vertex 1.368081e+001 3.758771e+001 1.000000e+003
         vertex 5.209445e+000 2.954423e+001 1.000000e+003
      endloop
   endfacet
   facet normal 0.000000e+000 0.000000e+000 1.000000e+000
      outer loop
         vertex 5.209445e+000 2.954423e+001 1.000000e+003
         vertex 1.368081e+001 3.758771e+001 1.000000e+003
         vertex 6.945927e+000 3.939231e+001 1.000000e+003
      endloop
   endfacet
   facet normal 0.000000e+000 0.000000e+000 1.000000e+000
      outer loop
         vertex 5.209445e+000 2.954423e+001 1.000000e+003
         vertex 6.945927e+000 3.939231e+001 1.000000e+003
         vertex -1.836970e-015 3.000000e+001 1.000000e+003
      endloop
   endfacet
   facet normal 0.000000e+000 0.000000e+000 1.000000e+000
      outer loop
         vertex -1.836970e-015 3.000000e+001 1.000000e+003
         vertex 6.945927e+000 3.939231e+001 1.000000e+003
         vertex -2.449294e-015 4.000000e+001 1.000000e+003
      endloop
   endfacet
   facet normal 0.000000e+000 0.000000e+000 1.000000e+000
      outer loop
         vertex -1.836970e-015 3.000000e+001 1.000000e+003
         vertex -2.449294e-015 4.000000e+001 1.000000e+003
         vertex -5.209445e+000 2.954423e+001 1.000000e+003
      endloop
   endfacet
   facet normal 0.000000e+000 0.000000e+000 1.000000e+000
      outer loop
         vertex -5.209445e+000 2.954423e+001 1.000000e+003
         vertex -2.449294e-015 4.000000e+001 1.000000e+003
         vertex -6.945927e+000 3.939231e+001 1.000000e+003
      endloop
   endfacet
   facet normal 0.000000e+000 0.000000e+000 1.000000e+000
      outer loop
         vertex -5.209445e+000 2.954423e+001 1.000000e+003
         vertex -6.945927e+000 3.939231e+001 1.000000e+003
         vertex -1.026060e+001 2.819078e+001 1.000000e+003
      endloop
   endfacet
   facet normal 0.000000e+000 0.000000e+000 1.000000e+000
      outer loop
         vertex -1.026060e+001 2.819078e+001 1.000000e+003
         vertex -6.945927e+000 3.939231e+001 1.000000e+003
         vertex -1.368081e+001 3.758771e+001 1.000000e+003
      endloop
   endfacet
   facet normal 0.000000e+000 0.000000e+000 1.000000e+000
      outer loop
         vertex -1.026060e+001 2.819078e+001 1.000000e+003
         vertex -1.368081e+001 3.758771e+001 1.000000e+003
         vertex -1.500000e+001 2.598076e+001 1.000000e+003
      endloop
   endfacet
   facet normal 0.000000e+000 0.000000e+000 1.000000e+000
      outer loop
         vertex -1.500000e+001 2.598076e+001 1.000000e+003
         vertex -1.368081e+001 3.758771e+001 1.000000e+003
         vertex -2.000000e+001 3.464102e+001 1.000000e+003
      endloop
   endfacet
   facet normal 0.000000e+000 0.000000e+000 1.000000e+000
      outer loop
         vertex -1.500000e+001 2.598076e+001 1.000000e+003
         vertex -2.000000e+001 3.464102e+001 1.000000e+003
         vertex -1.928363e+001 2.298133e+001 1.000000e+003
      endloop
   endfacet
   facet normal 0.000000e+000 0.000000e+000 1.000000e+000
      outer loop
         vertex -1.928363e+001 2.298133e+001 1.000000e+003
         vertex -2.000000e+001 3.464102e+001 1.000000e+003
         vertex -2.571150e+001 3.064178e+001 1.000000e+003
      endloop
   endfacet
   facet normal 0.000000e+000 0.000000e+000 1.000000e+000
      outer loop
         vertex -1.928363e+001 2.298133e+001 1.000000e+003
         vertex -2.571150e+001 3.064178e+001 1.000000e+003
         vertex -2.298133e+001 1.928363e+001 1.000000e+003
      endloop
   endfacet
   facet normal 0.000000e+000 0.000000e+000 1.000000e+000
      outer loop
         vertex -2.298133e+001 1.928363e+001 1.000000e+003
         vertex -2.571150e+001 3.064178e+001 1.000000e+003
         vertex -3.064178e+001 2.571150e+001 1.000000e+003
      endloop
   endfacet
   facet normal 0.000000e+000 0.000000e+000 1.000000e+000
      outer loop
         vertex -2.298133e+001 1.928363e+001 1.000000e+003
         vertex -3.064178e+001 2.571150e+001 1.000000e+003
         vertex -2.598076e+001 1.500000e+001 1.000000e+003
      endloop
   endfacet
   facet normal 0.000000e+000 0.000000e+000 1.000000e+000
      outer loop
         vertex -2.598076e+001 1.500000e+001 1.000000e+003
         vertex -3.064178e+001 2.571150e+001 1.000000e+003
         vertex -3.464102e+001 2.000000e+001 1.000000e+003
      endloop
   endfacet
   facet normal 0.000000e+000 0.000000e+000 1.000000e+000
      outer loop
         vertex -2.598076e+001 1.500000e+001 1.000000e+003
         vertex -3.464102e+001 2.000000e+001 1.000000e+003
         vertex -2.819078e+001 1.026060e+001 1.000000e+003
      endloop
   endfacet
   facet normal 0.000000e+000 0.000000e+000 1.000000e+000
      outer loop
         vertex -2.819078e+001 1.026060e+001 1.000000e+003
         vertex -3.464102e+001 2.000000e+001 1.000000e+003
         vertex -3.758771e+001 1.368081e+001 1.000000e+003
      endloop
   endfacet
   facet normal 0.000000e+000 0.000000e+000 1.000000e+000
      outer loop
         vertex -2.819078e+001 1.026060e+001 1.000000e+003
         vertex -3.758771e+001 1.368081e+001 1.000000e+003
         vertex -2.954423e+001 5.209445e+000 1.000000e+003
      endloop
   endfacet
   facet normal 0.000000e+000 0.000000e+000 1.000000e+000
      outer loop
         vertex -2.954423e+001 5.209445e+000 1.000000e+003
         vertex -3.758771e+001 1.368081e+001 1.000000e+003
         vertex -3.939231e+001 6.945927e+000 1.000000e+003
      endloop
   endfacet
   facet normal 0.000000e+000 0.000000e+000 1.000000e+000
      outer loop
         vertex -2.954423e+001 5.209445e+000 1.000000e+003
         vertex -3.939231e+001 6.945927e+000 1.000000e+003
         vertex -3.000000e+001 0.000000e+000 1.000000e+003
      endloop
   endfacet
   facet normal 0.000000e+000 0.000000e+000 1.000000e+000
      outer loop
         vertex -3.000000e+001 0.000000e+000 1.000000e+003
         vertex -3.939231e+001 6.945927e+000 1.000000e+003
         vertex -4.000000e+001 0.000000e+000 1.000000e+003
      endloop
   endfacet
   facet normal 0.000000e+000 0.000000e+000 1.000000e+000
      outer loop
         vertex -3.000000e+001 0.000000e+000 1.000000e+003
         vertex -4.000000e+001 0.000000e+000 1.000000e+003
         vertex -2.954423e+001 -5.209445e+000 1.000000e+003
      endloop
   endfacet
   facet normal 0.000000e+000 0.000000e+000 1.000000e+000
      outer loop
         vertex -2.954423e+001 -5.209445e+000 1.000000e+003
         vertex -4.000000e+001 0.000000e+000 1.000000e+003
         vertex -3.939231e+001 -6.945927e+000 1.000000e+003
      endloop
   endfacet
   facet normal 0.000000e+000 0.000000e+000 1.000000e+000
      outer loop
         vertex -2.954423e+001 -5.209445e+000 1.000000e+003
         vertex -3.939231e+001 -6.945927e+000 1.000000e+003
         vertex -2.819078e+001 -1.026060e+001 1.000000e+003
      endloop
   endfacet
   facet normal 0.000000e+000 0.000000e+000 1.000000e+000
      outer loop
         vertex -2.819078e+001 -1.026060e+001 1.000000e+003
         vertex -3.939231e+001 -6.945927e+000 1.000000e+003
         vertex -3.758771e+001 -1.368081e+001 1.000000e+003
      endloop
   endfacet
   facet normal 0.000000e+000 0.000000e+000 1.000000e+000
      outer loop
         vertex -2.819078e+001 -1.026060e+001 1.000000e+003
         vertex -3.758771e+001 -1.368081e+001 1.000000e+003
         vertex -2.598076e+001 -1.500000e+001 1.000000e+003
      endloop
   endfacet
   facet normal 0.000000e+000 0.000000e+000 1.000000e+000
      outer loop
         vertex -2.598076e+001 -1.500000e+001 1.000000e+003
         vertex -3.758771e+001 -1.368081e+001 1.000000e+003
         vertex -3.464102e+001 -2.000000e+001 1.000000e+003
      endloop
   endfacet
   facet normal 0.000000e+000 0.000000e+000 1.000000e+000
      outer loop
         vertex -2.598076e+001 -1.500000e+001 1.000000e+003
         vertex -3.464102e+001 -2.000000e+001 1.000000e+003
         vertex -2.298133e+001 -1.928363e+001 1.000000e+003
      endloop
   endfacet
   facet normal 0.000000e+000 0.000000e+000 1.000000e+000
      outer loop
         vertex -2.298133e+001 -1.928363e+001 1.000000e+003
         vertex -3.464102e+001 -2.000000e+001 1.000000e+003
         vertex -3.064178e+001 -2.571150e+001 1.000000e+003
      endloop
   endfacet
   facet normal 0.000000e+000 0.000000e+000 1.000000e+000
      outer loop
         vertex -2.298133e+001 -1.928363e+001 1.000000e+003
         vertex -3.064178e+001 -2.571150e+001 1.000000e+003
         vertex -1.928363e+001 -2.298133e+001 1.000000e+003
      endloop
   endfacet
   facet normal 0.000000e+000 0.000000e+000 1.000000e+000
      outer loop
         vertex -1.928363e+001 -2.298133e+001 1.000000e+003
         vertex -3.064178e+001 -2.571150e+001 1.000000e+003
         vertex -2.571150e+001 -3.064178e+001 1.000000e+003
      endloop
   endfacet
   facet normal 0.000000e+000 0.000000e+000 1.000000e+000
      outer loop
         vertex -1.928363e+001 -2.298133e+001 1.000000e+003
         vertex -2.571150e+001 -3.064178e+001 1.000000e+003
         vertex -1.500000e+001 -2.598076e+001 1.000000e+003
      endloop
   endfacet
   facet normal 0.000000e+000 0.000000e+000 1.000000e+000
      outer loop
         vertex -1.500000e+001 -2.598076e+001 1.000000e+003
         vertex -2.571150e+001 -3.064178e+001 1.000000e+003
         vertex -2.000000e+001 -3.464102e+001 1.000000e+003
      endloop
   endfacet
   facet normal 0.000000e+000 0.000000e+000 1.000000e+000
      outer loop
         vertex -1.500000e+001 -2.598076e+001 1.000000e+003
         vertex -2.000000e+001 -3.464102e+001 1.000000e+003
         vertex -1.026060e+001 -2.819078e+001 1.000000e+003
      endloop
   endfacet
   facet normal 0.000000e+000 0.000000e+000 1.000000e+000
      outer loop
         vertex -1.026060e+001 -2.819078e+001 1.000000e+003
         vertex -2.000000e+001 -3.464102e+001 1.000000e+003
         vertex -1.368081e+001 -3.758771e+001 1.000000e+003
      endloop
   endfacet
   facet normal 0.000000e+000 0.000000e+000 1.000000e+000
      outer loop
         vertex -1.026060e+001 -2.819078e+001 1.000000e+003
         vertex -1.368081e+001 -3.758771e+001 1.000000e+003
         vertex -5.209445e+000 -2.954423e+001 1.000000e+003
      endloop
   endfacet
   facet normal 0.000000e+000 0.000000e+000 1.000000e+000
      outer loop
         vertex -5.209445e+000 -2.954423e+001 1.000000e+003
         vertex -1.368081e+001 -3.758771e+001 1.000000e+003
         vertex -6.945927e+000 -3.939231e+001 1.000000e+003
      endloop
   endfacet
   facet normal 0.000000e+000 0.000000e+000 1.000000e+000
      outer loop
         vertex -5.209445e+000 -2.954423e+001 1.000000e+003
         vertex -6.945927e+000 -3.939231e+001 1.000000e+003
         vertex 5.510911e-015 -3.000000e+001 1.000000e+003
      endloop
   endfacet
   facet normal 0.000000e+000 0.000000e+000 1.000000e+000
      outer loop
         vertex 5.510911e-015 -3.000000e+001 1.000000e+003
         vertex -6.945927e+000 -3.939231e+001 1.000000e+003
         vertex 7.347881e-015 -4.000000e+001 1.000000e+003
      endloop
   endfacet
   facet normal 0.000000e+000 0.000000e+000 1.000000e+000
      outer loop
         vertex 5.510911e-015 -3.000000e+001 1.000000e+003
         vertex 7.347881e-015 -4.000000e+001 1.000000e+003
         vertex 5.209445e+000 -2.954423e+001 1.000000e+003
      endloop
   endfacet
   facet normal 0.000000e+000 0.000000e+000 1.000000e+000
      outer loop
         vertex 5.209445e+000 -2.954423e+001 1.000000e+003
         vertex 7.347881e-015 -4.000000e+001 1.000000e+003
         vertex 6.945927e+000 -3.939231e+001 1.000000e+003
      endloop
   endfacet
   facet normal 0.000000e+000 0.000000e+000 1.000000e+000
      outer loop
         vertex 5.209445e+000 -2.954423e+001 1.000000e+003
         vertex 6.945927e+000 -3.939231e+001 1.000000e+003
         vertex 1.026060e+001 -2.819078e+001 1.000000e+003
      endloop
   endfacet
   facet normal 0.000000e+000 0.000000e+000 1.000000e+000
      outer loop
         vertex 1.026060e+001 -2.819078e+001 1.000000e+003
         vertex 6.945927e+000 -3.939231e+001 1.000000e+003
         vertex 1.368081e+001 -3.758771e+001 1.000000e+003
      endloop
   endfacet
   facet normal 0.000000e+000 0.000000e+000 1.000000e+000
      outer loop
         vertex 1.026060e+001 -2.819078e+001 1.000000e+003
         vertex 1.368081e+001 -3.758771e+001 1.000000e+003
         vertex 1.500000e+001 -2.598076e+001 1.000000e+003
      endloop
   endfacet
   facet normal 0.000000e+000 0.000000e+000 1.000000e+000
      outer loop
         vertex 1.500000e+001 -2.598076e+001 1.000000e+003
         vertex 1.368081e+001 -3.758771e+001 1.000000e+003
         vertex 2.000000e+001 -3.464102e+001 1.000000e+003
      endloop
   endfacet
   facet normal 0.000000e+000 0.000000e+000 1.000000e+000
      outer loop
         vertex 1.500000e+001 -2.598076e+001 1.000000e+003
         vertex 2.000000e+001 -3.464102e+001 1.000000e+003
         vertex 1.928363e+001 -2.298133e+001 1.000000e+003
      endloop
   endfacet
   facet normal 0.000000e+000 0.000000e+000 1.000000e+000
      outer loop
         vertex 1.928363e+001 -2.298133e+001 1.000000e+003
         vertex 2.000000e+001 -3.464102e+001 1.000000e+003
         vertex 2.571150e+001 -3.064178e+001 1.000000e+003
      endloop
   endfacet
   facet normal 0.000000e+000 0.000000e+000 1.000000e+000
      outer loop
         vertex 1.928363e+001 -2.298133e+001 1.000000e+003
         vertex 2.571150e+001 -3.064178e+001 1.000000e+003
         vertex 2.298133e+001 -1.928363e+001 1.000000e+003
      endloop
   endfacet
   facet normal 0.000000e+000 0.000000e+000 1.000000e+000
      outer loop
         vertex 2.298133e+001 -1.928363e+001 1.000000e+003
         vertex 2.571150e+001 -3.064178e+001 1.000000e+003
         vertex 3.064178e+001 -2.571150e+001 1.000000e+003
      endloop
   endfacet
   facet normal 0.000000e+000 0.000000e+000 1.000000e+000
      outer loop
         vertex 2.298133e+001 -1.928363e+001 1.000000e+003
         vertex 3.064178e+001 -2.571150e+001 1.000000e+003
         vertex 2.598076e+001 -1.500000e+001 1.000000e+003
      endloop
   endfacet
   facet normal 0.000000e+000 0.000000e+000 1.000000e+000
      outer loop
         vertex 2.598076e+001 -1.500000e+001 1.000000e+003
         vertex 3.064178e+001 -2.571150e+001 1.000000e+003
         vertex 3.464102e+001 -2.000000e+001 1.000000e+003
      endloop
   endfacet
   facet normal 0.000000e+000 0.000000e+000 1.000000e+000
      outer loop
         vertex 2.598076e+001 -1.500000e+001 1.000000e+003
         vertex 3.464102e+001 -2.000000e+001 1.000000e+003
         vertex 2.819078e+001 -1.026060e+001 1.000000e+003
      endloop
   endfacet
   facet normal 0.000000e+000 0.000000e+000 1.000000e+000
      outer loop
         vertex 2.819078e+001 -1.026060e+001 1.000000e+003
         vertex 3.464102e+001 -2.000000e+001 1.000000e+003
         vertex 3.758771e+001 -1.368081e+001 1.000000e+003
      endloop
   endfacet
   facet normal 0.000000e+000 0.000000e+000 1.000000e+000
      outer loop
         vertex 2.819078e+001 -1.026060e+001 1.000000e+003
         vertex 3.758771e+001 -1.368081e+001 1.000000e+003
         vertex 2.954423e+001 -5.209445e+000 1.000000e+003
      endloop
   endfacet
   facet normal 0.000000e+000 0.000000e+000 1.000000e+000
      outer loop
         vertex 2.954423e+001 -5.209445e+000 1.000000e+003
         vertex 3.758771e+001 -1.368081e+001 1.000000e+003
         vertex 3.939231e+001 -6.945927e+000 1.000000e+003
      endloop
   endfacet
   facet normal 0.000000e+000 0.000000e+000 1.000000e+000
      outer loop
         vertex 2.954423e+001 -5.209445e+000 1.000000e+003
         vertex 3.939231e+001 -6.945927e+000 1.000000e+003
         vertex 3.000000e+001 1.102182e-014 1.000000e+003
      endloop
   endfacet
   facet normal 0.000000e+000 0.000000e+000 1.000000e+000
      outer loop
         vertex 3.000000e+001 1.102182e-014 1.000000e+003
         vertex 3.939231e+001 -6.945927e+000 1.000000e+003
         vertex 4.000000e+001 4.898587e-015 1.000000e+003
      endloop
   endfacet
   facet normal 0.000000e+000 0.000000e+000 1.000000e+000
      outer loop
         vertex 3.000000e+001 1.102182e-014 1.000000e+003
         vertex 4.000000e+001 4.898587e-015 1.000000e+003
         vertex 2.954423e+001 5.209445e+000 1.000000e+003
      endloop
   endfacet
   facet normal 0.000000e+000 0.000000e+000 1.000000e+000
      outer loop
         vertex 2.954423e+001 5.209445e+000 1.000000e+003
         vertex 4.000000e+001 4.898587e-015 1.000000e+003
         vertex 3.939231e+001 6.945927e+000 1.000000e+003
      endloop
   endfacet
   facet normal 0.000000e+000 0.000000e+000 -1.000000e+000
      outer loop
         vertex 2.819078e+001 1.026060e+001 0.000000e+000
         vertex 3.758771e+001 1.368081e+001 0.000000e+000
         vertex 2.954423e+001 5.209445e+000 0.000000e+000
      endloop
   endfacet
   facet normal 0.000000e+000 0.000000e+000 -1.000000e+000
      outer loop
         vertex 2.954423e+001 5.209445e+000 0.000000e+000
         vertex 3.758771e+001 1.368081e+001 0.000000e+000
         vertex 3.939231e+001 6.945927e+000 0.000000e+000
      endloop
   endfacet
   facet normal 0.000000e+000 0.000000e+000 -1.000000e+000
      outer loop
         vertex 2.954423e+001 5.209445e+000 0.000000e+000
         vertex 3.939231e+001 6.945927e+000 0.000000e+000
         vertex 3.000000e+001 3.673941e-015 0.000000e+000
      endloop
   endfacet
   facet normal 0.000000e+000 0.000000e+000 -1.000000e+000
      outer loop
         vertex 3.000000e+001 3.673941e-015 0.000000e+000
         vertex 3.939231e+001 6.945927e+000 0.000000e+000
         vertex 4.000000e+001 1.469576e-014 0.000000e+000
      endloop
   endfacet
   facet normal 0.000000e+000 0.000000e+000 -1.000000e+000
      outer loop
         vertex 3.000000e+001 3.673941e-015 0.000000e+000
         vertex 4.000000e+001 1.469576e-014 0.000000e+000
         vertex 2.954423e+001 -5.209445e+000 0.000000e+000
      endloop
   endfacet
   facet normal 0.000000e+000 0.000000e+000 -1.000000e+000
      outer loop
         vertex 2.954423e+001 -5.209445e+000 0.000000e+000
         vertex 4.000000e+001 1.469576e-014 0.000000e+000
         vertex 3.939231e+001 -6.945927e+000 0.000000e+000
      endloop
   endfacet
   facet normal 0.000000e+000 0.000000e+000 -1.000000e+000
      outer loop
         vertex 2.954423e+001 -5.209445e+000 0.000000e+000
         vertex 3.939231e+001 -6.945927e+000 0.000000e+000
         vertex 2.819078e+001 -1.026060e+001 0.000000e+000
      endloop
   endfacet
   facet normal 0.000000e+000 0.000000e+000 -1.000000e+000
      outer loop
         vertex 2.819078e+001 -1.026060e+001 0.000000e+000
         vertex 3.939231e+001 -6.945927e+000 0.000000e+000
         vertex 3.758771e+001 -1.368081e+001 0.000000e+000
      endloop
   endfacet
   facet normal 0.000000e+000 0.000000e+000 -1.000000e+000
      outer loop
         vertex 2.819078e+001 -1.026060e+001 0.000000e+000
         vertex 3.758771e+001 -1.368081e+001 0.000000e+000
         vertex 2.598076e+001 -1.500000e+001 0.000000e+000
      endloop
   endfacet
   facet normal 0.000000e+000 0.000000e+000 -1.000000e+000
      outer loop
         vertex 2.598076e+001 -1.500000e+001 0.000000e+000
         vertex 3.758771e+001 -1.368081e+001 0.000000e+000
         vertex 3.464102e+001 -2.000000e+001 0.000000e+000
      endloop
   endfacet
   facet normal 0.000000e+000 0.000000e+000 -1.000000e+000
      outer loop
         vertex 2.598076e+001 -1.500000e+001 0.000000e+000
         vertex 3.464102e+001 -2.000000e+001 0.000000e+000
         vertex 2.298133e+001 -1.928363e+001 0.000000e+000
      endloop
   endfacet
   facet normal 0.000000e+000 0.000000e+000 -1.000000e+000
      outer loop
         vertex 2.298133e+001 -1.928363e+001 0.000000e+000
         vertex 3.464102e+001 -2.000000e+001 0.000000e+000
         vertex 3.064178e+001 -2.571150e+001 0.000000e+000
      endloop
   endfacet
   facet normal 0.000000e+000 0.000000e+000 -1.000000e+000
      outer loop
         vertex 2.298133e+001 -1.928363e+001 0.000000e+000
         vertex 3.064178e+001 -2.571150e+001 0.000000e+000
         vertex 1.928363e+001 -2.298133e+001 0.000000e+000
      endloop
   endfacet
   facet normal 0.000000e+000 0.000000e+000 -1.000000e+000
      outer loop
         vertex 1.928363e+001 -2.298133e+001 0.000000e+000
         vertex 3.064178e+001 -2.571150e+001 0.000000e+000
         vertex 2.571150e+001 -3.064178e+001 0.000000e+000
      endloop
   endfacet
   facet normal 0.000000e+000 0.000000e+000 -1.000000e+000
      outer loop
         vertex 1.928363e+001 -2.298133e+001 0.000000e+000
         vertex 2.571150e+001 -3.064178e+001 0.000000e+000
         vertex 1.500000e+001 -2.598076e+001 0.000000e+000
      endloop
   endfacet
   facet normal 0.000000e+000 0.000000e+000 -1.000000e+000
      outer loop
         vertex 1.500000e+001 -2.598076e+001 0.000000e+000
         vertex 2.571150e+001 -3.064178e+001 0.000000e+000
         vertex 2.000000e+001 -3.464102e+001 0.000000e+000
      endloop
   endfacet
   facet normal 0.000000e+000 0.000000e+000 -1.000000e+000
      outer loop
         vertex 1.500000e+001 -2.598076e+001 0.000000e+000
         vertex 2.000000e+001 -3.464102e+001 0.000000e+000
         vertex 1.026060e+001 -2.819078e+001 0.000000e+000
      endloop
   endfacet
   facet normal 0.000000e+000 0.000000e+000 -1.000000e+000
      outer loop
         vertex 1.026060e+001 -2.819078e+001 0.000000e+000
         vertex 2.000000e+001 -3.464102e+001 0.000000e+000
         vertex 1.368081e+001 -3.758771e+001 0.000000e+000
      endloop
   endfacet
   facet normal 0.000000e+000 0.000000e+000 -1.000000e+000
      outer loop
         vertex 1.026060e+001 -2.819078e+001 0.000000e+000
         vertex 1.368081e+001 -3.758771e+001 0.000000e+000
         vertex 5.209445e+000 -2.954423e+001 0.000000e+000
      endloop
   endfacet
   facet normal 0.000000e+000 0.000000e+000 -1.000000e+000
      outer loop
         vertex 5.209445e+000 -2.954423e+001 0.000000e+000
         vertex 1.368081e+001 -3.758771e+001 0.000000e+000
         vertex 6.945927e+000 -3.939231e+001 0.000000e+000
      endloop
   endfacet
   facet normal 0.000000e+000 0.000000e+000 -1.000000e+000
      outer loop
         vertex 5.209445e+000 -2.954423e+001 0.000000e+000
         vertex 6.945927e+000 -3.939231e+001 0.000000e+000
         vertex 5.510911e-015 -3.000000e+001 0.000000e+000
      endloop
   endfacet
   facet normal 0.000000e+000 0.000000e+000 -1.000000e+000
      outer loop
         vertex 5.510911e-015 -3.000000e+001 0.000000e+000
         vertex 6.945927e+000 -3.939231e+001 0.000000e+000
         vertex 7.347881e-015 -4.000000e+001 0.000000e+000
      endloop
   endfacet
   facet normal 0.000000e+000 0.000000e+000 -1.000000e+000
      outer loop
         vertex 5.510911e-015 -3.000000e+001 0.000000e+000
         vertex 7.347881e-015 -4.000000e+001 0.000000e+000
         vertex -5.209445e+000 -2.954423e+001 0.000000e+000
      endloop
   endfacet
   facet normal 0.000000e+000 0.000000e+000 -1.000000e+000
      outer loop
         vertex -5.209445e+000 -2.954423e+001 0.000000e+000
         vertex 7.347881e-015 -4.000000e+001 0.000000e+000
         vertex -6.945927e+000 -3.939231e+001 0.000000e+000
      endloop
   endfacet
   facet normal 0.000000e+000 0.000000e+000 -1.000000e+000
      outer loop
         vertex -5.209445e+000 -2.954423e+001 0.000000e+000
         vertex -6.945927e+000 -3.939231e+001 0.000000e+000
         vertex -1.026060e+001 -2.819078e+001 0.000000e+000
      endloop
   endfacet
   facet normal 0.000000e+000 0.000000e+000 -1.000000e+000
      outer loop
         vertex -1.026060e+001 -2.819078e+001 0.000000e+000
         vertex -6.945927e+000 -3.939231e+001 0.000000e+000
         vertex -1.368081e+001 -3.758771e+001 0.000000e+000
      endloop
   endfacet
   facet normal 0.000000e+000 0.000000e+000 -1.000000e+000
      outer loop
         vertex -1.026060e+001 -2.819078e+001 0.000000e+000
         vertex -1.368081e+001 -3.758771e+001 0.000000e+000
         vertex -1.500000e+001 -2.598076e+001 0.000000e+000
      endloop
   endfacet
   facet normal 0.000000e+000 0.000000e+000 -1.000000e+000
      outer loop
         vertex -1.500000e+001 -2.598076e+001 0.000000e+000
         vertex -1.368081e+001 -3.758771e+001 0.000000e+000
         vertex -2.000000e+001 -3.464102e+001 0.000000e+000
      endloop
   endfacet
   facet normal 0.000000e+000 0.000000e+000 -1.000000e+000
      outer loop
         vertex -1.500000e+001 -2.598076e+001 0.000000e+000
         vertex -2.000000e+001 -3.464102e+001 0.000000e+000
         vertex -1.928363e+001 -2.298133e+001 0.000000e+000
      endloop
   endfacet
   facet normal 0.000000e+000 0.000000e+000 -1.000000e+000
      outer loop
         vertex -1.928363e+001 -2.298133e+001 0.000000e+000
         vertex -2.000000e+001 -3.464102e+001 0.000000e+000
         vertex -2.571150e+001 -3.064178e+001 0.000000e+000
      endloop
   endfacet
   facet normal 0.000000e+000 0.000000e+000 -1.000000e+000
      outer loop
         vertex -1.928363e+001 -2.298133e+001 0.000000e+000
         vertex -2.571150e+001 -3.064178e+001 0.000000e+000
         vertex -2.298133e+001 -1.928363e+001 0.000000e+000
      endloop
   endfacet
   facet normal 0.000000e+000 0.000000e+000 -1.000000e+000
      outer loop
         vertex -2.298133e+001 -1.928363e+001 0.000000e+000
         vertex -2.571150e+001 -3.064178e+001 0.000000e+000
         vertex -3.064178e+001 -2.571150e+001 0.000000e+000
      endloop
   endfacet
   facet normal 0.000000e+000 0.000000e+000 -1.000000e+000
      outer loop
         vertex -2.298133e+001 -1.928363e+001 0.000000e+000
         vertex -3.064178e+001 -2.571150e+001 0.000000e+000
         vertex -2.598076e+001 -1.500000e+001 0.000000e+000
      endloop
   endfacet
   facet normal 0.000000e+000 0.000000e+000 -1.000000e+000
      outer loop
         vertex -2.598076e+001 -1.500000e+001 0.000000e+000
         vertex -3.064178e+001 -2.571150e+001 0.000000e+000
         vertex -3.464102e+001 -2.000000e+001 0.000000e+000
      endloop
   endfacet
   facet normal 0.000000e+000 0.000000e+000 -1.000000e+000
      outer loop
         vertex -2.598076e+001 -1.500000e+001 0.000000e+000
         vertex -3.464102e+001 -2.000000e+001 0.000000e+000
         vertex -2.819078e+001 -1.026060e+001 0.000000e+000
      endloop
   endfacet
   facet normal 0.000000e+000 0.000000e+000 -1.000000e+000
      outer loop
         vertex -2.819078e+001 -1.026060e+001 0.000000e+000
         vertex -3.464102e+001 -2.000000e+001 0.000000e+000
         vertex -3.758771e+001 -1.368081e+001 0.000000e+000
      endloop
   endfacet
   facet normal 0.000000e+000 0.000000e+000 -1.000000e+000
      outer loop
         vertex -2.819078e+001 -1.026060e+001 0.000000e+000
         vertex -3.758771e+001 -1.368081e+001 0.000000e+000
         vertex -2.954423e+001 -5.209445e+000 0.000000e+000
      endloop
   endfacet
   facet normal 0.000000e+000 0.000000e+000 -1.000000e+000
      outer loop
         vertex -2.954423e+001 -5.209445e+000 0.000000e+000
         vertex -3.758771e+001 -1.368081e+001 0.000000e+000
         vertex -3.939231e+001 -6.945927e+000 0.000000e+000
      endloop
   endfacet
   facet normal 0.000000e+000 0.000000e+000 -1.000000e+000
      outer loop
         vertex -2.954423e+001 -5.209445e+000 0.000000e+000
         vertex -3.939231e+001 -6.945927e+000 0.000000e+000
         vertex -3.000000e+001 0.000000e+000 0.000000e+000
      endloop
   endfacet
   facet normal 0.000000e+000 0.000000e+000 -1.000000e+000
      outer loop
         vertex -3.000000e+001 0.000000e+000 0.000000e+000
         vertex -3.939231e+001 -6.945927e+000 0.000000e+000
         vertex -4.000000e+001 0.000000e+000 0.000000e+000
      endloop
   endfacet
   facet normal 0.000000e+000 0.000000e+000 -1.000000e+000
      outer loop
         vertex -3.000000e+001 0.000000e+000 0.000000e+000
         vertex -4.000000e+001 0.000000e+000 0.000000e+000
         vertex -2.954423e+001 5.209445e+000 0.000000e+000
      endloop
   endfacet
   facet normal 0.000000e+000 0.000000e+000 -1.000000e+000
      outer loop
         vertex -2.954423e+001 5.209445e+000 0.000000e+000
         vertex -4.000000e+001 0.000000e+000 0.000000e+000
         vertex -3.939231e+001 6.945927e+000 0.000000e+000
      endloop
   endfacet
   facet normal 0.000000e+000 0.000000e+000 -1.000000e+000
      outer loop
         vertex -2.954423e+001 5.209445e+000 0.000000e+000
         vertex -3.939231e+001 6.945927e+000 0.000000e+000
         vertex -2.819078e+001 1.026060e+001 0.000000e+000
      endloop
   endfacet
   facet normal 0.000000e+000 0.000000e+000 -1.000000e+000
      outer loop
         vertex -2.819078e+001 1.026060e+001 0.000000e+000
         vertex -3.939231e+001 6.945927e+000 0.000000e+000
         vertex -3.758771e+001 1.368081e+001 0.000000e+000
      endloop
   endfacet
   facet normal 0.000000e+000 0.000000e+000 -1.000000e+000
      outer loop
         vertex -2.819078e+001 1.026060e+001 0.000000e+000
         vertex -3.758771e+001 1.368081e+001 0.000000e+000
         vertex -2.598076e+001 1.500000e+001 0.000000e+000
      endloop
   endfacet
   facet normal 0.000000e+000 0.000000e+000 -1.000000e+000
      outer loop
         vertex -2.598076e+001 1.500000e+001 0.000000e+000
         vertex -3.758771e+001 1.368081e+001 0.000000e+000
         vertex -3.464102e+001 2.000000e+001 0.000000e+000
      endloop
   endfacet
   facet normal 0.000000e+000 0.000000e+000 -1.000000e+000
      outer loop
         vertex -2.598076e+001 1.500000e+001 0.000000e+000
         vertex -3.464102e+001 2.000000e+001 0.000000e+000
         vertex -2.298133e+001 1.928363e+001 0.000000e+000
      endloop
   endfacet
   facet normal 0.000000e+000 0.000000e+000 -1.000000e+000
      outer loop
         vertex -2.298133e+001 1.928363e+001 0.000000e+000
         vertex -3.464102e+001 2.000000e+001 0.000000e+000
         vertex -3.064178e+001 2.571150e+001 0.000000e+000
      endloop
   endfacet
   facet normal 0.000000e+000 0.000000e+000 -1.000000e+000
      outer loop
         vertex -2.298133e+001 1.928363e+001 0.000000e+000
         vertex -3.064178e+001 2.571150e+001 0.000000e+000
         vertex -1.928363e+001 2.298133e+001 0.000000e+000
      endloop
   endfacet
   facet normal 0.000000e+000 0.000000e+000 -1.000000e+000
      outer loop
         vertex -1.928363e+001 2.298133e+001 0.000000e+000
         vertex -3.064178e+001 2.571150e+001 0.000000e+000
         vertex -2.571150e+001 3.064178e+001 0.000000e+000
      endloop
   endfacet
   facet normal 0.000000e+000 0.000000e+000 -1.000000e+000
      outer loop
         vertex -1.928363e+001 2.298133e+001 0.000000e+000
         vertex -2.571150e+001 3.064178e+001 0.000000e+000
         vertex -1.500000e+001 2.598076e+001 0.000000e+000
      endloop
   endfacet
   facet normal 0.000000e+000 0.000000e+000 -1.000000e+000
      outer loop
         vertex -1.500000e+001 2.598076e+001 0.000000e+000
         vertex -2.571150e+001 3.064178e+001 0.000000e+000
         vertex -2.000000e+001 3.464102e+001 0.000000e+000
      endloop
   endfacet
   facet normal 0.000000e+000 0.000000e+000 -1.000000e+000
      outer loop
         vertex -1.500000e+001 2.598076e+001 0.000000e+000
         vertex -2.000000e+001 3.464102e+001 0.000000e+000
         vertex -1.026060e+001 2.819078e+001 0.000000e+000
      endloop
   endfacet
   facet normal 0.000000e+000 0.000000e+000 -1.000000e+000
      outer loop
         vertex -1.026060e+001 2.819078e+001 0.000000e+000
         vertex -2.000000e+001 3.464102e+001 0.000000e+000
         vertex -1.368081e+001 3.758771e+001 0.000000e+000
      endloop
   endfacet
   facet normal 0.000000e+000 0.000000e+000 -1.000000e+000
      outer loop
         vertex -1.026060e+001 2.819078e+001 0.000000e+000
         vertex -1.368081e+001 3.758771e+001 0.000000e+000
         vertex -5.209445e+000 2.954423e+001 0.000000e+000
      endloop
   endfacet
   facet normal 0.000000e+000 0.000000e+000 -1.000000e+000
      outer loop
         vertex -5.209445e+000 2.954423e+001 0.000000e+000
         vertex -1.368081e+001 3.758771e+001 0.000000e+000
         vertex -6.945927e+000 3.939231e+001 0.000000e+000
      endloop
   endfacet
   facet normal 0.000000e+000 0.000000e+000 -1.000000e+000
      outer loop
         vertex -5.209445e+000 2.954423e+001 0.000000e+000
         vertex -6.945927e+000 3.939231e+001 0.000000e+000
         vertex -1.836970e-015 3.000000e+001 0.000000e+000
      endloop
   endfacet
   facet normal 0.000000e+000 0.000000e+000 -1.000000e+000
      outer loop
         vertex -1.836970e-015 3.000000e+001 0.000000e+000
         vertex -6.945927e+000 3.939231e+001 0.000000e+000
         vertex -2.449294e-015 4.000000e+001 0.000000e+000
      endloop
   endfacet
   facet normal 0.000000e+000 0.000000e+000 -1.000000e+000
      outer loop
         vertex -1.836970e-015 3.000000e+001 0.000000e+000
         vertex -2.449294e-015 4.000000e+001 0.000000e+000
         vertex 5.209445e+000 2.954423e+001 0.000000e+000
      endloop
   endfacet
   facet normal 0.000000e+000 0.000000e+000 -1.000000e+000
      outer loop
         vertex 5.209445e+000 2.954423e+001 0.000000e+000
         vertex -2.449294e-015 4.000000e+001 0.000000e+000
         vertex 6.945927e+000 3.939231e+001 0.000000e+000
      endloop
   endfacet
   facet normal 0.000000e+000 0.000000e+000 -1.000000e+000
      outer loop
         vertex 5.209445e+000 2.954423e+001 0.000000e+000
         vertex 6.945927e+000 3.939231e+001 0.000000e+000
         vertex 1.026060e+001 2.819078e+001 0.000000e+000
      endloop
   endfacet
   facet normal 0.000000e+000 0.000000e+000 -1.000000e+000
      outer loop
         vertex 1.026060e+001 2.819078e+001 0.000000e+000
         vertex 6.945927e+000 3.939231e+001 0.000000e+000
         vertex 1.368081e+001 3.758771e+001 0.000000e+000
      endloop
   endfacet
   facet normal 0.000000e+000 0.000000e+000 -1.000000e+000
      outer loop
         vertex 1.026060e+001 2.819078e+001 0.000000e+000
         vertex 1.368081e+001 3.758771e+001 0.000000e+000
         vertex 1.500000e+001 2.598076e+001 0.000000e+000
      endloop
   endfacet
   facet normal 0.000000e+000 0.000000e+000 -1.000000e+000
      outer loop
         vertex 1.500000e+001 2.598076e+001 0.000000e+000
         vertex 1.368081e+001 3.758771e+001 0.000000e+000
         vertex 2.000000e+001 3.464102e+001 0.000000e+000
      endloop
   endfacet
   facet normal 0.000000e+000 0.000000e+000 -1.000000e+000
      outer loop
         vertex 1.500000e+001 2.598076e+001 0.000000e+000
         vertex 2.000000e+001 3.464102e+001 0.000000e+000
         vertex 1.928363e+001 2.298133e+001 0.000000e+000
      endloop
   endfacet
   facet normal 0.000000e+000 0.000000e+000 -1.000000e+000
      outer loop
         vertex 1.928363e+001 2.298133e+001 0.000000e+000
         vertex 2.000000e+001 3.464102e+001 0.000000e+000
         vertex 2.571150e+001 3.064178e+001 0.000000e+000
      endloop
   endfacet
   facet normal 0.000000e+000 0.000000e+000 -1.000000e+000
      outer loop
         vertex 1.928363e+001 2.298133e+001 0.000000e+000
         vertex 2.571150e+001 3.064178e+001 0.000000e+000
         vertex 2.298133e+001 1.928363e+001 0.000000e+000
      endloop
   endfacet
   facet normal 0.000000e+000 0.000000e+000 -1.000000e+000
      outer loop
         vertex 2.298133e+001 1.928363e+001 0.000000e+000
         vertex 2.571150e+001 3.064178e+001 0.000000e+000
         vertex 3.064178e+001 2.571150e+001 0.000000e+000
      endloop
   endfacet
   facet normal 0.000000e+000 0.000000e+000 -1.000000e+000
      outer loop
         vertex 2.298133e+001 1.928363e+001 0.000000e+000
         vertex 3.064178e+001 2.571150e+001 0.000000e+000
         vertex 2.598076e+001 1.500000e+001 0.000000e+000
      endloop
   endfacet
   facet normal 0.000000e+000 0.000000e+000 -1.000000e+000
      outer loop
         vertex 2.598076e+001 1.500000e+001 0.000000e+000
         vertex 3.064178e+001 2.571150e+001 0.000000e+000
         vertex 3.464102e+001 2.000000e+001 0.000000e+000
      endloop
   endfacet
   facet normal 0.000000e+000 0.000000e+000 -1.000000e+000
      outer loop
         vertex 2.598076e+001 1.500000e+001 0.000000e+000
         vertex 3.464102e+001 2.000000e+001 0.000000e+000
         vertex 2.819078e+001 1.026060e+001 0.000000e+000
      endloop
   endfacet
   facet normal 0.000000e+000 0.000000e+000 -1.000000e+000
      outer loop
         vertex 2.819078e+001 1.026060e+001 0.000000e+000
         vertex 3.464102e+001 2.000000e+001 0.000000e+000
         vertex 3.758771e+001 1.368081e+001 0.000000e+000
      endloop
   endfacet
   facet normal -9.932307e-001 1.161583e-001 0.000000e+000
      outer loop
         vertex -4.000000e+001 0.000000e+000 0.000000e+000
         vertex -3.939231e+001 6.945927e+000 1.000000e+003
         vertex -3.939231e+001 6.945927e+000 0.000000e+000
      endloop
   endfacet
   facet normal -9.730600e-001 2.305519e-001 0.000000e+000
      outer loop
         vertex -3.939231e+001 6.945927e+000 0.000000e+000
         vertex -3.939231e+001 6.945927e+000 1.000000e+003
         vertex -3.758771e+001 1.368081e+001 1.000000e+003
      endloop
   endfacet
   facet normal -9.579706e-001 2.868663e-001 0.000000e+000
      outer loop
         vertex -3.939231e+001 6.945927e+000 0.000000e+000
         vertex -3.758771e+001 1.368081e+001 1.000000e+003
         vertex -3.758771e+001 1.368081e+001 0.000000e+000
      endloop
   endfacet
   facet normal -9.182422e-001 3.960194e-001 0.000000e+000
      outer loop
         vertex -3.758771e+001 1.368081e+001 0.000000e+000
         vertex -3.758771e+001 1.368081e+001 1.000000e+003
         vertex -3.464102e+001 2.000000e+001 1.000000e+003
      endloop
   endfacet
   facet normal -8.936031e-001 4.488580e-001 0.000000e+000
      outer loop
         vertex -3.758771e+001 1.368081e+001 0.000000e+000
         vertex -3.464102e+001 2.000000e+001 1.000000e+003
         vertex -3.464102e+001 2.000000e+001 0.000000e+000
      endloop
   endfacet
   facet normal -8.355240e-001 5.494540e-001 0.000000e+000
      outer loop
         vertex -3.464102e+001 2.000000e+001 0.000000e+000
         vertex -3.464102e+001 2.000000e+001 1.000000e+003
         vertex -3.064178e+001 2.571150e+001 1.000000e+003
      endloop
   endfacet
   facet normal -8.020838e-001 5.972114e-001 0.000000e+000
      outer loop
         vertex -3.464102e+001 2.000000e+001 0.000000e+000
         vertex -3.064178e+001 2.571150e+001 1.000000e+003
         vertex -3.064178e+001 2.571150e+001 0.000000e+000
      endloop
   endfacet
   facet normal -7.274188e-001 6.861938e-001 0.000000e+000
      outer loop
         vertex -3.064178e+001 2.571150e+001 0.000000e+000
         vertex -3.064178e+001 2.571150e+001 1.000000e+003
         vertex -2.571150e+001 3.064178e+001 1.000000e+003
      endloop
   endfacet
   facet normal -6.861938e-001 7.274188e-001 0.000000e+000
      outer loop
         vertex -3.064178e+001 2.571150e+001 0.000000e+000
         vertex -2.571150e+001 3.064178e+001 1.000000e+003
         vertex -2.571150e+001 3.064178e+001 0.000000e+000
      endloop
   endfacet
   facet normal -5.972114e-001 8.020838e-001 0.000000e+000
      outer loop
         vertex -2.571150e+001 3.064178e+001 0.000000e+000
         vertex -2.571150e+001 3.064178e+001 1.000000e+003
         vertex -2.000000e+001 3.464102e+001 1.000000e+003
      endloop
   endfacet
   facet normal -5.494540e-001 8.355240e-001 0.000000e+000
      outer loop
         vertex -2.571150e+001 3.064178e+001 0.000000e+000
         vertex -2.000000e+001 3.464102e+001 1.000000e+003
         vertex -2.000000e+001 3.464102e+001 0.000000e+000
      endloop
   endfacet
   facet normal -4.488580e-001 8.936031e-001 0.000000e+000
      outer loop
         vertex -2.000000e+001 3.464102e+001 0.000000e+000
         vertex -2.000000e+001 3.464102e+001 1.000000e+003
         vertex -1.368081e+001 3.758771e+001 1.000000e+003
      endloop
   endfacet
   facet normal -3.960194e-001 9.182422e-001 0.000000e+000
      outer loop
         vertex -2.000000e+001 3.464102e+001 0.000000e+000
         vertex -1.368081e+001 3.758771e+001 1.000000e+003
         vertex -1.368081e+001 3.758771e+001 0.000000e+000
      endloop
   endfacet
   facet normal -2.868663e-001 9.579706e-001 0.000000e+000
      outer loop
         vertex -1.368081e+001 3.758771e+001 0.000000e+000
         vertex -1.368081e+001 3.758771e+001 1.000000e+003
         vertex -6.945927e+000 3.939231e+001 1.000000e+003
      endloop
   endfacet
   facet normal -2.305519e-001 9.730600e-001 0.000000e+000
      outer loop
         vertex -1.368081e+001 3.758771e+001 0.000000e+000
         vertex -6.945927e+000 3.939231e+001 1.000000e+003
         vertex -6.945927e+000 3.939231e+001 0.000000e+000
      endloop
   endfacet
   facet normal -1.161583e-001 9.932307e-001 0.000000e+000
      outer loop
         vertex -6.945927e+000 3.939231e+001 0.000000e+000
         vertex -6.945927e+000 3.939231e+001 1.000000e+003
         vertex -2.449294e-015 4.000000e+001 1.000000e+003
      endloop
   endfacet
   facet normal -5.807913e-002 9.983119e-001 0.000000e+000
      outer loop
         vertex -6.945927e+000 3.939231e+001 0.000000e+000
         vertex -2.449294e-015 4.000000e+001 1.000000e+003
         vertex -2.449294e-015 4.000000e+001 0.000000e+000
      endloop
   endfacet
   facet normal 5.807913e-002 9.983119e-001 0.000000e+000
      outer loop
         vertex -2.449294e-015 4.000000e+001 0.000000e+000
         vertex -2.449294e-015 4.000000e+001 1.000000e+003
         vertex 6.945927e+000 3.939231e+001 1.000000e+003
      endloop
   endfacet
   facet normal 1.161583e-001 9.932307e-001 0.000000e+000
      outer loop
         vertex -2.449294e-015 4.000000e+001 0.000000e+000
         vertex 6.945927e+000 3.939231e+001 1.000000e+003
         vertex 6.945927e+000 3.939231e+001 0.000000e+000
      endloop
   endfacet
   facet normal 2.305519e-001 9.730600e-001 0.000000e+000
      outer loop
         vertex 6.945927e+000 3.939231e+001 0.000000e+000
         vertex 6.945927e+000 3.939231e+001 1.000000e+003
         vertex 1.368081e+001 3.758771e+001 1.000000e+003
      endloop
   endfacet
   facet normal 2.868663e-001 9.579706e-001 0.000000e+000
      outer loop
         vertex 6.945927e+000 3.939231e+001 0.000000e+000
         vertex 1.368081e+001 3.758771e+001 1.000000e+003
         vertex 1.368081e+001 3.758771e+001 0.000000e+000
      endloop
   endfacet
   facet normal 3.960194e-001 9.182422e-001 0.000000e+000
      outer loop
         vertex 1.368081e+001 3.758771e+001 0.000000e+000
         vertex 1.368081e+001 3.758771e+001 1.000000e+003
         vertex 2.000000e+001 3.464102e+001 1.000000e+003
      endloop
   endfacet
   facet normal 4.488580e-001 8.936031e-001 0.000000e+000
      outer loop
         vertex 1.368081e+001 3.758771e+001 0.000000e+000
         vertex 2.000000e+001 3.464102e+001 1.000000e+003
         vertex 2.000000e+001 3.464102e+001 0.000000e+000
      endloop
   endfacet
   facet normal 5.494540e-001 8.355240e-001 0.000000e+000
      outer loop
         vertex 2.000000e+001 3.464102e+001 0.000000e+000
         vertex 2.000000e+001 3.464102e+001 1.000000e+003
         vertex 2.571150e+001 3.064178e+001 1.000000e+003
      endloop
   endfacet
   facet normal 5.972114e-001 8.020838e-001 0.000000e+000
      outer loop
         vertex 2.000000e+001 3.464102e+001 0.000000e+000
         vertex 2.571150e+001 3.064178e+001 1.000000e+003
         vertex 2.571150e+001 3.064178e+001 0.000000e+000
      endloop
   endfacet
   facet normal 6.861938e-001 7.274188e-001 0.000000e+000
      outer loop
         vertex 2.571150e+001 3.064178e+001 0.000000e+000
         vertex 2.571150e+001 3.064178e+001 1.000000e+003
         vertex 3.064178e+001 2.571150e+001 1.000000e+003
      endloop
   endfacet
   facet normal 7.274188e-001 6.861938e-001 0.000000e+000
      outer loop
         vertex 2.571150e+001 3.064178e+001 0.000000e+000
         vertex 3.064178e+001 2.571150e+001 1.000000e+003
         vertex 3.064178e+001 2.571150e+001 0.000000e+000
      endloop
   endfacet
   facet normal 8.020838e-001 5.972114e-001 0.000000e+000
      outer loop
         vertex 3.064178e+001 2.571150e+001 0.000000e+000
         vertex 3.064178e+001 2.571150e+001 1.000000e+003
         vertex 3.464102e+001 2.000000e+001 1.000000e+003
      endloop
   endfacet
   facet normal 8.355240e-001 5.494540e-001 0.000000e+000
      outer loop
         vertex 3.064178e+001 2.571150e+001 0.000000e+000
         vertex 3.464102e+001 2.000000e+001 1.000000e+003
         vertex 3.464102e+001 2.000000e+001 0.000000e+000
      endloop
   endfacet
   facet normal 8.936031e-001 4.488580e-001 0.000000e+000
      outer loop
         vertex 3.464102e+001 2.000000e+001 0.000000e+000
         vertex 3.464102e+001 2.000000e+001 1.000000e+003
         vertex 3.758771e+001 1.368081e+001 1.000000e+003
      endloop
   endfacet
   facet normal 9.182422e-001 3.960194e-001 0.000000e+000
      outer loop
         vertex 3.464102e+001 2.000000e+001 0.000000e+000
         vertex 3.758771e+001 1.368081e+001 1.000000e+003
         vertex 3.758771e+001 1.368081e+001 0.000000e+000
      endloop
   endfacet
   facet normal 9.579706e-001 2.868663e-001 0.000000e+000
      outer loop
         vertex 3.758771e+001 1.368081e+001 0.000000e+000
         vertex 3.758771e+001 1.368081e+001 1.000000e+003
         vertex 3.939231e+001 6.945927e+000 1.000000e+003
      endloop
   endfacet
   facet normal 9.730600e-001 2.305519e-001 0.000000e+000
      outer loop
         vertex 3.758771e+001 1.368081e+001 0.000000e+000
         vertex 3.939231e+001 6.945927e+000 1.000000e+003
         vertex 3.939231e+001 6.945927e+000 0.000000e+000
      endloop
   endfacet
   facet normal 9.932307e-001 1.161583e-001 0.000000e+000
      outer loop
         vertex 3.939231e+001 6.945927e+000 0.000000e+000
         vertex 3.939231e+001 6.945927e+000 1.000000e+003
         vertex 4.000000e+001 4.898587e-015 1.000000e+003
      endloop
   endfacet
   facet normal 9.983119e-001 5.807913e-002 0.000000e+000
      outer loop
         vertex 3.939231e+001 6.945927e+000 0.000000e+000
         vertex 4.000000e+001 4.898587e-015 1.000000e+003
         vertex 4.000000e+001 4.898587e-015 0.000000e+000
      endloop
   endfacet
   facet normal 9.983119e-001 -5.807913e-002 0.000000e+000
      outer loop
         vertex 4.000000e+001 4.898587e-015 0.000000e+000
         vertex 4.000000e+001 4.898587e-015 1.000000e+003
         vertex 3.939231e+001 -6.945927e+000 1.000000e+003
      endloop
   endfacet
   facet normal 9.932307e-001 -1.161583e-001 0.000000e+000
      outer loop
         vertex 4.000000e+001 4.898587e-015 0.000000e+000
         vertex 3.939231e+001 -6.945927e+000 1.000000e+003
         vertex 3.939231e+001 -6.945927e+000 0.000000e+000
      endloop
   endfacet
   facet normal 9.730600e-001 -2.305519e-001 0.000000e+000
      outer loop
         vertex 3.939231e+001 -6.945927e+000 0.000000e+000
         vertex 3.939231e+001 -6.945927e+000 1.000000e+003
         vertex 3.758771e+001 -1.368081e+001 1.000000e+003
      endloop
   endfacet
   facet normal 9.579706e-001 -2.868663e-001 0.000000e+000
      outer loop
         vertex 3.939231e+001 -6.945927e+000 0.000000e+000
         vertex 3.758771e+001 -1.368081e+001 1.000000e+003
         vertex 3.758771e+001 -1.368081e+001 0.000000e+000
      endloop
   endfacet
   facet normal 9.182422e-001 -3.960194e-001 0.000000e+000
      outer loop
         vertex 3.758771e+001 -1.368081e+001 0.000000e+000
         vertex 3.758771e+001 -1.368081e+001 1.000000e+003
         vertex 3.464102e+001 -2.000000e+001 1.000000e+003
      endloop
   endfacet
   facet normal 8.936031e-001 -4.488580e-001 0.000000e+000
      outer loop
         vertex 3.758771e+001 -1.368081e+001 0.000000e+000
         vertex 3.464102e+001 -2.000000e+001 1.000000e+003
         vertex 3.464102e+001 -2.000000e+001 0.000000e+000
      endloop
   endfacet
   facet normal 8.355240e-001 -5.494540e-001 0.000000e+000
      outer loop
         vertex 3.464102e+001 -2.000000e+001 0.000000e+000
         vertex 3.464102e+001 -2.000000e+001 1.000000e+003
         vertex 3.064178e+001 -2.571150e+001 1.000000e+003
      endloop
   endfacet
   facet normal 8.020838e-001 -5.972114e-001 0.000000e+000
      outer loop
         vertex 3.464102e+001 -2.000000e+001 0.000000e+000
         vertex 3.064178e+001 -2.571150e+001 1.000000e+003
         vertex 3.064178e+001 -2.571150e+001 0.000000e+000
      endloop
   endfacet
   facet normal 7.274188e-001 -6.861938e-001 0.000000e+000
      outer loop
         vertex 3.064178e+001 -2.571150e+001 0.000000e+000
         vertex 3.064178e+001 -2.571150e+001 1.000000e+003
         vertex 2.571150e+001 -3.064178e+001 1.000000e+003
      endloop
   endfacet
   facet normal 6.861938e-001 -7.274188e-001 0.000000e+000
      outer loop
         vertex 3.064178e+001 -2.571150e+001 0.000000e+000
         vertex 2.571150e+001 -3.064178e+001 1.000000e+003
         vertex 2.571150e+001 -3.064178e+001 0.000000e+000
      endloop
   endfacet
   facet normal 5.972114e-001 -8.020838e-001 0.000000e+000
      outer loop
         vertex 2.571150e+001 -3.064178e+001 0.000000e+000
         vertex 2.571150e+001 -3.064178e+001 1.000000e+003
         vertex 2.000000e+001 -3.464102e+001 1.000000e+003
      endloop
   endfacet
   facet normal 5.494540e-001 -8.355240e-001 0.000000e+000
      outer loop
         vertex 2.571150e+001 -3.064178e+001 0.000000e+000
         vertex 2.000000e+001 -3.464102e+001 1.000000e+003
         vertex 2.000000e+001 -3.464102e+001 0.000000e+000
      endloop
   endfacet
   facet normal 4.488580e-001 -8.936031e-001 0.000000e+000
      outer loop
         vertex 2.000000e+001 -3.464102e+001 0.000000e+000
         vertex 2.000000e+001 -3.464102e+001 1.000000e+003
         vertex 1.368081e+001 -3.758771e+001 1.000000e+003
      endloop
   endfacet
   facet normal 3.960194e-001 -9.182422e-001 0.000000e+000
      outer loop
         vertex 2.000000e+001 -3.464102e+001 0.000000e+000
         vertex 1.368081e+001 -3.758771e+001 1.000000e+003
         vertex 1.368081e+001 -3.758771e+001 0.000000e+000
      endloop
   endfacet
   facet normal 2.868663e-001 -9.579706e-001 0.000000e+000
      outer loop
         vertex 1.368081e+001 -3.758771e+001 0.000000e+000
         vertex 1.368081e+001 -3.758771e+001 1.000000e+003
         vertex 6.945927e+000 -3.939231e+001 1.000000e+003
      endloop
   endfacet
   facet normal 2.305519e-001 -9.730600e-001 0.000000e+000
      outer loop
         vertex 1.368081e+001 -3.758771e+001 0.000000e+000
         vertex 6.945927e+000 -3.939231e+001 1.000000e+003
         vertex 6.945927e+000 -3.939231e+001 0.000000e+000
      endloop
   endfacet
   facet normal 1.161583e-001 -9.932307e-001 0.000000e+000
      outer loop
         vertex 6.945927e+000 -3.939231e+001 0.000000e+000
         vertex 6.945927e+000 -3.939231e+001 1.000000e+003
         vertex 7.347881e-015 -4.000000e+001 1.000000e+003
      endloop
   endfacet
   facet normal 5.807913e-002 -9.983119e-001 0.000000e+000
      outer loop
         vertex 6.945927e+000 -3.939231e+001 0.000000e+000
         vertex 7.347881e-015 -4.000000e+001 1.000000e+003
         vertex 7.347881e-015 -4.000000e+001 0.000000e+000
      endloop
   endfacet
   facet normal -5.807913e-002 -9.983119e-001 0.000000e+000
      outer loop
         vertex 7.347881e-015 -4.000000e+001 0.000000e+000
         vertex 7.347881e-015 -4.000000e+001 1.000000e+003
         vertex -6.945927e+000 -3.939231e+001 1.000000e+003
      endloop
   endfacet
   facet normal -1.161583e-001 -9.932307e-001 0.000000e+000
      outer loop
         vertex 7.347881e-015 -4.000000e+001 0.000000e+000
         vertex -6.945927e+000 -3.939231e+001 1.000000e+003
         vertex -6.945927e+000 -3.939231e+001 0.000000e+000
      endloop
   endfacet
   facet normal -2.305519e-001 -9.730600e-001 0.000000e+000
      outer loop
         vertex -6.945927e+000 -3.939231e+001 0.000000e+000
         vertex -6.945927e+000 -3.939231e+001 1.000000e+003
         vertex -1.368081e+001 -3.758771e+001 1.000000e+003
      endloop
   endfacet
   facet normal -2.868663e-001 -9.579706e-001 0.000000e+000
      outer loop
         vertex -6.945927e+000 -3.939231e+001 0.000000e+000
         vertex -1.368081e+001 -3.758771e+001 1.000000e+003
         vertex -1.368081e+001 -3.758771e+001 0.000000e+000
      endloop
   endfacet
   facet normal -3.960194e-001 -9.182422e-001 0.000000e+000
      outer loop
         vertex -1.368081e+001 -3.758771e+001 0.000000e+000
         vertex -1.368081e+001 -3.758771e+001 1.000000e+003
         vertex -2.000000e+001 -3.464102e+001 1.000000e+003
      endloop
   endfacet
   facet normal -4.488580e-001 -8.936031e-001 0.000000e+000
      outer loop
         vertex -1.368081e+001 -3.758771e+001 0.000000e+000
         vertex -2.000000e+001 -3.464102e+001 1.000000e+003
         vertex -2.000000e+001 -3.464102e+001 0.000000e+000
      endloop
   endfacet
   facet normal -5.494540e-001 -8.355240e-001 0.000000e+000
      outer loop
         vertex -2.000000e+001 -3.464102e+001 0.000000e+000
         vertex -2.000000e+001 -3.464102e+001 1.000000e+003
         vertex -2.571150e+001 -3.064178e+001 1.000000e+003
      endloop
   endfacet
   facet normal -5.972114e-001 -8.020838e-001 0.000000e+000
      outer loop
         vertex -2.000000e+001 -3.464102e+001 0.000000e+000
         vertex -2.571150e+001 -3.064178e+001 1.000000e+003
         vertex -2.571150e+001 -3.064178e+001 0.000000e+000
      endloop
   endfacet
   facet normal -6.861938e-001 -7.274188e-001 0.000000e+000
      outer loop
         vertex -2.571150e+001 -3.064178e+001 0.000000e+000
         vertex -2.571150e+001 -3.064178e+001 1.000000e+003
         vertex -3.064178e+001 -2.571150e+001 1.000000e+003
      endloop
   endfacet
   facet normal -7.274188e-001 -6.861938e-001 0.000000e+000
      outer loop
         vertex -2.571150e+001 -3.064178e+001 0.000000e+000
         vertex -3.064178e+001 -2.571150e+001 1.000000e+003
         vertex -3.064178e+001 -2.571150e+001 0.000000e+000
      endloop
   endfacet
   facet normal -8.020838e-001 -5.972114e-001 0.000000e+000
      outer loop
         vertex -3.064178e+001 -2.571150e+001 0.000000e+000
         vertex -3.064178e+001 -2.571150e+001 1.000000e+003
         vertex -3.464102e+001 -2.000000e+001 1.000000e+003
      endloop
   endfacet
   facet normal -8.355240e-001 -5.494540e-001 0.000000e+000
      outer loop
         vertex -3.064178e+001 -2.571150e+001 0.000000e+000
         vertex -3.464102e+001 -2.000000e+001 1.000000e+003
         vertex -3.464102e+001 -2.000000e+001 0.000000e+000
      endloop
   endfacet
   facet normal -8.936031e-001 -4.488580e-001 0.000000e+000
      outer loop
         vertex -3.464102e+001 -2.000000e+001 0.000000e+000
         vertex -3.464102e+001 -2.000000e+001 1.000000e+003
         vertex -3.758771e+001 -1.368081e+001 1.000000e+003
      endloop
   endfacet
   facet normal -9.182422e-001 -3.960194e-001 0.000000e+000
      outer loop
         vertex -3.464102e+001 -2.000000e+001 0.000000e+000
         vertex -3.758771e+001 -1.368081e+001 1.000000e+003
         vertex -3.758771e+001 -1.368081e+001 0.000000e+000
      endloop
   endfacet
   facet normal -9.579706e-001 -2.868663e-001 0.000000e+000
      outer loop
         vertex -3.758771e+001 -1.368081e+001 0.000000e+000
         vertex -3.758771e+001 -1.368081e+001 1.000000e+003
         vertex -3.939231e+001 -6.945927e+000 1.000000e+003
      endloop
   endfacet
   facet normal -9.730600e-001 -2.305519e-001 0.000000e+000
      outer loop
         vertex -3.758771e+001 -1.368081e+001 0.000000e+000
         vertex -3.939231e+001 -6.945927e+000 1.000000e+003
         vertex -3.939231e+001 -6.945927e+000 0.000000e+000
      endloop
   endfacet
   facet normal -9.932307e-001 -1.161583e-001 0.000000e+000
      outer loop
         vertex -3.939231e+001 -6.945927e+000 0.000000e+000
         vertex -3.939231e+001 -6.945927e+000 1.000000e+003
         vertex -4.000000e+001 0.000000e+000 1.000000e+003
      endloop
   endfacet
   facet normal -9.983119e-001 -5.807913e-002 0.000000e+000
      outer loop
         vertex -3.939231e+001 -6.945927e+000 0.000000e+000
         vertex -4.000000e+001 0.000000e+000 1.000000e+003
         vertex -4.000000e+001 0.000000e+000 0.000000e+000
      endloop
   endfacet
   facet normal -9.983119e-001 5.807913e-002 0.000000e+000
      outer loop
         vertex -4.000000e+001 0.000000e+000 0.000000e+000
         vertex -4.000000e+001 0.000000e+000 1.000000e+003
         vertex -3.939231e+001 6.945927e+000 1.000000e+003
      endloop
   endfacet
   facet normal 9.983119e-001 -5.807913e-002 0.000000e+000
      outer loop
         vertex -3.000000e+001 -7.347881e-015 1.000000e+003
         vertex -3.000000e+001 -7.347881e-015 0.000000e+000
         vertex -2.954423e+001 5.209445e+000 1.000000e+003
      endloop
   endfacet
   facet normal 9.932307e-001 -1.161583e-001 0.000000e+000
      outer loop
         vertex -2.954423e+001 5.209445e+000 1.000000e+003
         vertex -3.000000e+001 -7.347881e-015 0.000000e+000
         vertex -2.954423e+001 5.209445e+000 0.000000e+000
      endloop
   endfacet
   facet normal 9.730600e-001 -2.305519e-001 0.000000e+000
      outer loop
         vertex -2.954423e+001 5.209445e+000 1.000000e+003
         vertex -2.954423e+001 5.209445e+000 0.000000e+000
         vertex -2.819078e+001 1.026060e+001 1.000000e+003
      endloop
   endfacet
   facet normal 9.579706e-001 -2.868663e-001 0.000000e+000
      outer loop
         vertex -2.819078e+001 1.026060e+001 1.000000e+003
         vertex -2.954423e+001 5.209445e+000 0.000000e+000
         vertex -2.819078e+001 1.026060e+001 0.000000e+000
      endloop
   endfacet
   facet normal 9.182422e-001 -3.960194e-001 0.000000e+000
      outer loop
         vertex -2.819078e+001 1.026060e+001 1.000000e+003
         vertex -2.819078e+001 1.026060e+001 0.000000e+000
         vertex -2.598076e+001 1.500000e+001 1.000000e+003
      endloop
   endfacet
   facet normal 8.936031e-001 -4.488580e-001 0.000000e+000
      outer loop
         vertex -2.598076e+001 1.500000e+001 1.000000e+003
         vertex -2.819078e+001 1.026060e+001 0.000000e+000
         vertex -2.598076e+001 1.500000e+001 0.000000e+000
      endloop
   endfacet
   facet normal 8.355240e-001 -5.494540e-001 0.000000e+000
      outer loop
         vertex -2.598076e+001 1.500000e+001 1.000000e+003
         vertex -2.598076e+001 1.500000e+001 0.000000e+000
         vertex -2.298133e+001 1.928363e+001 1.000000e+003
      endloop
   endfacet
   facet normal 8.020838e-001 -5.972114e-001 0.000000e+000
      outer loop
         vertex -2.298133e+001 1.928363e+001 1.000000e+003
         vertex -2.598076e+001 1.500000e+001 0.000000e+000
         vertex -2.298133e+001 1.928363e+001 0.000000e+000
      endloop
   endfacet
   facet normal 7.274188e-001 -6.861938e-001 0.000000e+000
      outer loop
         vertex -2.298133e+001 1.928363e+001 1.000000e+003
         vertex -2.298133e+001 1.928363e+001 0.000000e+000
         vertex -1.928363e+001 2.298133e+001 1.000000e+003
      endloop
   endfacet
   facet normal 6.861938e-001 -7.274188e-001 0.000000e+000
      outer loop
         vertex -1.928363e+001 2.298133e+001 1.000000e+003
         vertex -2.298133e+001 1.928363e+001 0.000000e+000
         vertex -1.928363e+001 2.298133e+001 0.000000e+000
      endloop
   endfacet
   facet normal 5.972114e-001 -8.020838e-001 0.000000e+000
      outer loop
         vertex -1.928363e+001 2.298133e+001 1.000000e+003
         vertex -1.928363e+001 2.298133e+001 0.000000e+000
         vertex -1.500000e+001 2.598076e+001 1.000000e+003
      endloop
   endfacet
   facet normal 5.494540e-001 -8.355240e-001 0.000000e+000
      outer loop
         vertex -1.500000e+001 2.598076e+001 1.000000e+003
         vertex -1.928363e+001 2.298133e+001 0.000000e+000
         vertex -1.500000e+001 2.598076e+001 0.000000e+000
      endloop
   endfacet
   facet normal 4.488580e-001 -8.936031e-001 0.000000e+000
      outer loop
         vertex -1.500000e+001 2.598076e+001 1.000000e+003
         vertex -1.500000e+001 2.598076e+001 0.000000e+000
         vertex -1.026060e+001 2.819078e+001 1.000000e+003
      endloop
   endfacet
   facet normal 3.960194e-001 -9.182422e-001 0.000000e+000
      outer loop
         vertex -1.026060e+001 2.819078e+001 1.000000e+003
         vertex -1.500000e+001 2.598076e+001 0.000000e+000
         vertex -1.026060e+001 2.819078e+001 0.000000e+000
      endloop
   endfacet
   facet normal 2.868663e-001 -9.579706e-001 0.000000e+000
      outer loop
         vertex -1.026060e+001 2.819078e+001 1.000000e+003
         vertex -1.026060e+001 2.819078e+001 0.000000e+000
         vertex -5.209445e+000 2.954423e+001 1.000000e+003
      endloop
   endfacet
   facet normal 2.305519e-001 -9.730600e-001 0.000000e+000
      outer loop
         vertex -5.209445e+000 2.954423e+001 1.000000e+003
         vertex -1.026060e+001 2.819078e+001 0.000000e+000
         vertex -5.209445e+000 2.954423e+001 0.000000e+000
      endloop
   endfacet
   facet normal 1.161583e-001 -9.932307e-001 0.000000e+000
      outer loop
         vertex -5.209445e+000 2.954423e+001 1.000000e+003
         vertex -5.209445e+000 2.954423e+001 0.000000e+000
         vertex -1.836970e-015 3.000000e+001 1.000000e+003
      endloop
   endfacet
   facet normal 5.807913e-002 -9.983119e-001 0.000000e+000
      outer loop
         vertex -1.836970e-015 3.000000e+001 1.000000e+003
         vertex -5.209445e+000 2.954423e+001 0.000000e+000
         vertex -1.836970e-015 3.000000e+001 0.000000e+000
      endloop
   endfacet
   facet normal -5.807913e-002 -9.983119e-001 0.000000e+000
      outer loop
         vertex -1.836970e-015 3.000000e+001 1.000000e+003
         vertex -1.836970e-015 3.000000e+001 0.000000e+000
         vertex 5.209445e+000 2.954423e+001 1.000000e+003
      endloop
   endfacet
   facet normal -1.161583e-001 -9.932307e-001 0.000000e+000
      outer loop
         vertex 5.209445e+000 2.954423e+001 1.000000e+003
         vertex -1.836970e-015 3.000000e+001 0.000000e+000
         vertex 5.209445e+000 2.954423e+001 0.000000e+000
      endloop
   endfacet
   facet normal -2.305519e-001 -9.730600e-001 0.000000e+000
      outer loop
         vertex 5.209445e+000 2.954423e+001 1.000000e+003
         vertex 5.209445e+000 2.954423e+001 0.000000e+000
         vertex 1.026060e+001 2.819078e+001 1.000000e+003
      endloop
   endfacet
   facet normal -2.868663e-001 -9.579706e-001 0.000000e+000
      outer loop
         vertex 1.026060e+001 2.819078e+001 1.000000e+003
         vertex 5.209445e+000 2.954423e+001 0.000000e+000
         vertex 1.026060e+001 2.819078e+001 0.000000e+000
      endloop
   endfacet
   facet normal -3.960194e-001 -9.182422e-001 0.000000e+000
      outer loop
         vertex 1.026060e+001 2.819078e+001 1.000000e+003
         vertex 1.026060e+001 2.819078e+001 0.000000e+000
         vertex 1.500000e+001 2.598076e+001 1.000000e+003
      endloop
   endfacet
   facet normal -4.488580e-001 -8.936031e-001 0.000000e+000
      outer loop
         vertex 1.500000e+001 2.598076e+001 1.000000e+003
         vertex 1.026060e+001 2.819078e+001 0.000000e+000
         vertex 1.500000e+001 2.598076e+001 0.000000e+000
      endloop
   endfacet
   facet normal -5.494540e-001 -8.355240e-001 0.000000e+000
      outer loop
         vertex 1.500000e+001 2.598076e+001 1.000000e+003
         vertex 1.500000e+001 2.598076e+001 0.000000e+000
         vertex 1.928363e+001 2.298133e+001 1.000000e+003
      endloop
   endfacet
   facet normal -5.972114e-001 -8.020838e-001 0.000000e+000
      outer loop
         vertex 1.928363e+001 2.298133e+001 1.000000e+003
         vertex 1.500000e+001 2.598076e+001 0.000000e+000
         vertex 1.928363e+001 2.298133e+001 0.000000e+000
      endloop
   endfacet
   facet normal -6.861938e-001 -7.274188e-001 0.000000e+000
      outer loop
         vertex 1.928363e+001 2.298133e+001 1.000000e+003
         vertex 1.928363e+001 2.298133e+001 0.000000e+000
         vertex 2.298133e+001 1.928363e+001 1.000000e+003
      endloop
   endfacet
   facet normal -7.274188e-001 -6.861938e-001 0.000000e+000
      outer loop
         vertex 2.298133e+001 1.928363e+001 1.000000e+003
         vertex 1.928363e+001 2.298133e+001 0.000000e+000
         vertex 2.298133e+001 1.928363e+001 0.000000e+000
      endloop
   endfacet
   facet normal -8.020838e-001 -5.972114e-001 0.000000e+000
      outer loop
         vertex 2.298133e+001 1.928363e+001 1.000000e+003
         vertex 2.298133e+001 1.928363e+001 0.000000e+000
         vertex 2.598076e+001 1.500000e+001 1.000000e+003
      endloop
   endfacet
   facet normal -8.355240e-001 -5.494540e-001 0.000000e+000
      outer loop
         vertex 2.598076e+001 1.500000e+001 1.000000e+003
         vertex 2.298133e+001 1.928363e+001 0.000000e+000
         vertex 2.598076e+001 1.500000e+001 0.000000e+000
      endloop
   endfacet
   facet normal -8.936031e-001 -4.488580e-001 0.000000e+000
      outer loop
         vertex 2.598076e+001 1.500000e+001 1.000000e+003
         vertex 2.598076e+001 1.500000e+001 0.000000e+000
         vertex 2.819078e+001 1.026060e+001 1.000000e+003
      endloop
   endfacet
   facet normal -9.182422e-001 -3.960194e-001 0.000000e+000
      outer loop
         vertex 2.819078e+001 1.026060e+001 1.000000e+003
         vertex 2.598076e+001 1.500000e+001 0.000000e+000
         vertex 2.819078e+001 1.026060e+001 0.000000e+000
      endloop
   endfacet
   facet normal -9.579706e-001 -2.868663e-001 0.000000e+000
      outer loop
         vertex 2.819078e+001 1.026060e+001 1.000000e+003
         vertex 2.819078e+001 1.026060e+001 0.000000e+000
         vertex 2.954423e+001 5.209445e+000 1.000000e+003
      endloop
   endfacet
   facet normal -9.730600e-001 -2.305519e-001 0.000000e+000
      outer loop
         vertex 2.954423e+001 5.209445e+000 1.000000e+003
         vertex 2.819078e+001 1.026060e+001 0.000000e+000
         vertex 2.954423e+001 5.209445e+000 0.000000e+000
      endloop
   endfacet
   facet normal -9.932307e-001 -1.161583e-001 0.000000e+000
      outer loop
         vertex 2.954423e+001 5.209445e+000 1.000000e+003
         vertex 2.954423e+001 5.209445e+000 0.000000e+000
         vertex 3.000000e+001 3.673941e-015 1.000000e+003
      endloop
   endfacet
   facet normal -9.983119e-001 -5.807913e-002 0.000000e+000
      outer loop
         vertex 3.000000e+001 3.673941e-015 1.000000e+003
         vertex 2.954423e+001 5.209445e+000 0.000000e+000
         vertex 3.000000e+001 3.673941e-015 0.000000e+000
      endloop
   endfacet
   facet normal -9.983119e-001 5.807913e-002 0.000000e+000
      outer loop
         vertex 3.000000e+001 3.673941e-015 1.000000e+003
         vertex 3.000000e+001 3.673941e-015 0.000000e+000
         vertex 2.954423e+001 -5.209445e+000 1.000000e+003
      endloop
   endfacet
   facet normal -9.932307e-001 1.161583e-001 0.000000e+000
      outer loop
         vertex 2.954423e+001 -5.209445e+000 1.000000e+003
         vertex 3.000000e+001 3.673941e-015 0.000000e+000
         vertex 2.954423e+001 -5.209445e+000 0.000000e+000
      endloop
   endfacet
   facet normal -9.730600e-001 2.305519e-001 0.000000e+000
      outer loop
         vertex 2.954423e+001 -5.209445e+000 1.000000e+003
         vertex 2.954423e+001 -5.209445e+000 0.000000e+000
         vertex 2.819078e+001 -1.026060e+001 1.000000e+003
      endloop
   endfacet
   facet normal -9.579706e-001 2.868663e-001 0.000000e+000
      outer loop
         vertex 2.819078e+001 -1.026060e+001 1.000000e+003
         vertex 2.954423e+001 -5.209445e+000 0.000000e+000
         vertex 2.819078e+001 -1.026060e+001 0.000000e+000
      endloop
   endfacet
   facet normal -9.182422e-001 3.960194e-001 0.000000e+000
      outer loop
         vertex 2.819078e+001 -1.026060e+001 1.000000e+003
         vertex 2.819078e+001 -1.026060e+001 0.000000e+000
         vertex 2.598076e+001 -1.500000e+001 1.000000e+003
      endloop
   endfacet
   facet normal -8.936031e-001 4.488580e-001 0.000000e+000
      outer loop
         vertex 2.598076e+001 -1.500000e+001 1.000000e+003
         vertex 2.819078e+001 -1.026060e+001 0.000000e+000
         vertex 2.598076e+001 -1.500000e+001 0.000000e+000
      endloop
   endfacet
   facet normal -8.355240e-001 5.494540e-001 0.000000e+000
      outer loop
         vertex 2.598076e+001 -1.500000e+001 1.000000e+003
         vertex 2.598076e+001 -1.500000e+001 0.000000e+000
         vertex 2.298133e+001 -1.928363e+001 1.000000e+003
      endloop
   endfacet
   facet normal -8.020838e-001 5.972114e-001 0.000000e+000
      outer loop
         vertex 2.298133e+001 -1.928363e+001 1.000000e+003
         vertex 2.598076e+001 -1.500000e+001 0.000000e+000
         vertex 2.298133e+001 -1.928363e+001 0.000000e+000
      endloop
   endfacet
   facet normal -7.274188e-001 6.861938e-001 0.000000e+000
      outer loop
         vertex 2.298133e+001 -1.928363e+001 1.000000e+003
         vertex 2.298133e+001 -1.928363e+001 0.000000e+000
         vertex 1.928363e+001 -2.298133e+001 1.000000e+003
      endloop
   endfacet
   facet normal -6.861938e-001 7.274188e-001 0.000000e+000
      outer loop
         vertex 1.928363e+001 -2.298133e+001 1.000000e+003
         vertex 2.298133e+001 -1.928363e+001 0.000000e+000
         vertex 1.928363e+001 -2.298133e+001 0.000000e+000
      endloop
   endfacet
   facet normal -5.972114e-001 8.020838e-001 0.000000e+000
      outer loop
         vertex 1.928363e+001 -2.298133e+001 1.000000e+003
         vertex 1.928363e+001 -2.298133e+001 0.000000e+000
         vertex 1.500000e+001 -2.598076e+001 1.000000e+003
      endloop
   endfacet
   facet normal -5.494540e-001 8.355240e-001 0.000000e+000
      outer loop
         vertex 1.500000e+001 -2.598076e+001 1.000000e+003
         vertex 1.928363e+001 -2.298133e+001 0.000000e+000
         vertex 1.500000e+001 -2.598076e+001 0.000000e+000
      endloop
   endfacet
   facet normal -4.488580e-001 8.936031e-001 0.000000e+000
      outer loop
         vertex 1.500000e+001 -2.598076e+001 1.000000e+003
         vertex 1.500000e+001 -2.598076e+001 0.000000e+000
         vertex 1.026060e+001 -2.819078e+001 1.000000e+003
      endloop
   endfacet
   facet normal -3.960194e-001 9.182422e-001 0.000000e+000
      outer loop
         vertex 1.026060e+001 -2.819078e+001 1.000000e+003
         vertex 1.500000e+001 -2.598076e+001 0.000000e+000
         vertex 1.026060e+001 -2.819078e+001 0.000000e+000
      endloop
   endfacet
   facet normal -2.868663e-001 9.579706e-001 0.000000e+000
      outer loop
         vertex 1.026060e+001 -2.819078e+001 1.000000e+003
         vertex 1.026060e+001 -2.819078e+001 0.000000e+000
         vertex 5.209445e+000 -2.954423e+001 1.000000e+003
      endloop
   endfacet
   facet normal -2.305519e-001 9.730600e-001 0.000000e+000
      outer loop
         vertex 5.209445e+000 -2.954423e+001 1.000000e+003
         vertex 1.026060e+001 -2.819078e+001 0.000000e+000
         vertex 5.209445e+000 -2.954423e+001 0.000000e+000
      endloop
   endfacet
   facet normal -1.161583e-001 9.932307e-001 0.000000e+000
      outer loop
         vertex 5.209445e+000 -2.954423e+001 1.000000e+003
         vertex 5.209445e+000 -2.954423e+001 0.000000e+000
         vertex 5.510911e-015 -3.000000e+001 1.000000e+003
      endloop
   endfacet
   facet normal -5.807913e-002 9.983119e-001 0.000000e+000
      outer loop
         vertex 5.510911e-015 -3.000000e+001 1.000000e+003
         vertex 5.209445e+000 -2.954423e+001 0.000000e+000
         vertex 5.510911e-015 -3.000000e+001 0.000000e+000
      endloop
   endfacet
   facet normal 5.807913e-002 9.983119e-001 0.000000e+000
      outer loop
         vertex 5.510911e-015 -3.000000e+001 1.000000e+003
         vertex 5.510911e-015 -3.000000e+001 0.000000e+000
         vertex -5.209445e+000 -2.954423e+001 1.000000e+003
      endloop
   endfacet
   facet normal 1.161583e-001 9.932307e-001 0.000000e+000
      outer loop
         vertex -5.209445e+000 -2.954423e+001 1.000000e+003
         vertex 5.510911e-015 -3.000000e+001 0.000000e+000
         vertex -5.209445e+000 -2.954423e+001 0.000000e+000
      endloop
   endfacet
   facet normal 2.305519e-001 9.730600e-001 0.000000e+000
      outer loop
         vertex -5.209445e+000 -2.954423e+001 1.000000e+003
         vertex -5.209445e+000 -2.954423e+001 0.000000e+000
         vertex -1.026060e+001 -2.819078e+001 1.000000e+003
      endloop
   endfacet
   facet normal 2.868663e-001 9.579706e-001 0.000000e+000
      outer loop
         vertex -1.026060e+001 -2.819078e+001 1.000000e+003
         vertex -5.209445e+000 -2.954423e+001 0.000000e+000
         vertex -1.026060e+001 -2.819078e+001 0.000000e+000
      endloop
   endfacet
   facet normal 3.960194e-001 9.182422e-001 0.000000e+000
      outer loop
         vertex -1.026060e+001 -2.819078e+001 1.000000e+003
         vertex -1.026060e+001 -2.819078e+001 0.000000e+000
         vertex -1.500000e+001 -2.598076e+001 1.000000e+003
      endloop
   endfacet
   facet normal 4.488580e-001 8.936031e-001 0.000000e+000
      outer loop
         vertex -1.500000e+001 -2.598076e+001 1.000000e+003
         vertex -1.026060e+001 -2.819078e+001 0.000000e+000
         vertex -1.500000e+001 -2.598076e+001 0.000000e+000
      endloop
   endfacet
   facet normal 5.494540e-001 8.355240e-001 0.000000e+000
      outer loop
         vertex -1.500000e+001 -2.598076e+001 1.000000e+003
         vertex -1.500000e+001 -2.598076e+001 0.000000e+000
         vertex -1.928363e+001 -2.298133e+001 1.000000e+003
      endloop
   endfacet
   facet normal 5.972114e-001 8.020838e-001 0.000000e+000
      outer loop
         vertex -1.928363e+001 -2.298133e+001 1.000000e+003
         vertex -1.500000e+001 -2.598076e+001 0.000000e+000
         vertex -1.928363e+001 -2.298133e+001 0.000000e+000
      endloop
   endfacet
   facet normal 6.861938e-001 7.274188e-001 0.000000e+000
      outer loop
         vertex -1.928363e+001 -2.298133e+001 1.000000e+003
         vertex -1.928363e+001 -2.298133e+001 0.000000e+000
         vertex -2.298133e+001 -1.928363e+001 1.000000e+003
      endloop
   endfacet
   facet normal 7.274188e-001 6.861938e-001 0.000000e+000
      outer loop
         vertex -2.298133e+001 -1.928363e+001 1.000000e+003
         vertex -1.928363e+001 -2.298133e+001 0.000000e+000
         vertex -2.298133e+001 -1.928363e+001 0.000000e+000
      endloop
   endfacet
   facet normal 8.020838e-001 5.972114e-001 0.000000e+000
      outer loop
         vertex -2.298133e+001 -1.928363e+001 1.000000e+003
         vertex -2.298133e+001 -1.928363e+001 0.000000e+000
         vertex -2.598076e+001 -1.500000e+001 1.000000e+003
      endloop
   endfacet
   facet normal 8.355240e-001 5.494540e-001 0.000000e+000
      outer loop
         vertex -2.598076e+001 -1.500000e+001 1.000000e+003
         vertex -2.298133e+001 -1.928363e+001 0.000000e+000
         vertex -2.598076e+001 -1.500000e+001 0.000000e+000
      endloop
   endfacet
   facet normal 8.936031e-001 4.488580e-001 0.000000e+000
      outer loop
         vertex -2.598076e+001 -1.500000e+001 1.000000e+003
         vertex -2.598076e+001 -1.500000e+001 0.000000e+000
         vertex -2.819078e+001 -1.026060e+001 1.000000e+003
      endloop
   endfacet
   facet normal 9.182422e-001 3.960194e-001 0.000000e+000
      outer loop
         vertex -2.819078e+001 -1.026060e+001 1.000000e+003
         vertex -2.598076e+001 -1.500000e+001 0.000000e+000
         vertex -2.819078e+001 -1.026060e+001 0.000000e+000
      endloop
   endfacet
   facet normal 9.579706e-001 2.868663e-001 0.000000e+000
      outer loop
         vertex -2.819078e+001 -1.026060e+001 1.000000e+003
         vertex -2.819078e+001 -1.026060e+001 0.000000e+000
         vertex -2.954423e+001 -5.209445e+000 1.000000e+003
      endloop
   endfacet
   facet normal 9.730600e-001 2.305519e-001 0.000000e+000
      outer loop
         vertex -2.954423e+001 -5.209445e+000 1.000000e+003
         vertex -2.819078e+001 -1.026060e+001 0.000000e+000
         vertex -2.954423e+001 -5.209445e+000 0.000000e+000
      endloop
   endfacet
   facet normal 9.932307e-001 1.161583e-001 0.000000e+000
      outer loop
         vertex -2.954423e+001 -5.209445e+000 1.000000e+003
         vertex -2.954423e+001 -5.209445e+000 0.000000e+000
         vertex -3.000000e+001 -7.347881e-015 1.000000e+003
      endloop
   endfacet
   facet normal 9.983119e-001 5.807913e-002 0.000000e+000
      outer loop
         vertex -3.000000e+001 -7.347881e-015 1.000000e+003
         vertex -2.954423e+001 -5.209445e+000 0.000000e+000
         vertex -3.000000e+001 -7.347881e-015 0.000000e+000
      endloop
   endfacet
endsolid