solid top1m
   facet normal -8.660254e-001 -5.000000e-001 0.000000e+000
      outer loop
         vertex -9.659258e+002 2.588190e+002 -1.000000e+002
         vertex -2.588190e+002 -9.659258e+002 -1.000000e+002
         vertex -9.659258e+002 2.588190e+002 5.551115e-014
      endloop
   endfacet
   facet normal -8.660254e-001 -5.000000e-001 0.000000e+000
      outer loop
         vertex -9.659258e+002 2.588190e+002 5.551115e-014
         vertex -2.588190e+002 -9.659258e+002 -1.000000e+002
         vertex -2.588190e+002 -9.659258e+002 5.551115e-014
      endloop
   endfacet
   facet normal -8.660254e-001 5.000000e-001 0.000000e+000
      outer loop
         vertex -7.071068e+002 7.071068e+002 -1.000000e+002
         vertex -9.659258e+002 2.588190e+002 -1.000000e+002
         vertex -7.071068e+002 7.071068e+002 0.000000e+000
      endloop
   endfacet
   facet normal -8.660254e-001 5.000000e-001 0.000000e+000
      outer loop
         vertex -7.071068e+002 7.071068e+002 0.000000e+000
         vertex -9.659258e+002 2.588190e+002 -1.000000e+002
         vertex -9.659258e+002 2.588190e+002 0.000000e+000
      endloop
   endfacet
   facet normal -3.768222e-015 1.000000e+000 0.000000e+000
      outer loop
         vertex 7.071068e+002 7.071068e+002 -1.000000e+002
         vertex -7.071068e+002 7.071068e+002 -1.000000e+002
         vertex 7.071068e+002 7.071068e+002 0.000000e+000
      endloop
   endfacet
   facet normal -3.768222e-015 1.000000e+000 0.000000e+000
      outer loop
         vertex 7.071068e+002 7.071068e+002 0.000000e+000
         vertex -7.071068e+002 7.071068e+002 -1.000000e+002
         vertex -7.071068e+002 7.071068e+002 0.000000e+000
      endloop
   endfacet
   facet normal 8.660254e-001 5.000000e-001 0.000000e+000
      outer loop
         vertex 9.659258e+002 2.588190e+002 -1.000000e+002
         vertex 7.071068e+002 7.071068e+002 -1.000000e+002
         vertex 9.659258e+002 2.588190e+002 0.000000e+000
      endloop
   endfacet
   facet normal 8.660254e-001 5.000000e-001 0.000000e+000
      outer loop
         vertex 9.659258e+002 2.588190e+002 0.000000e+000
         vertex 7.071068e+002 7.071068e+002 -1.000000e+002
         vertex 7.071068e+002 7.071068e+002 0.000000e+000
      endloop
   endfacet
   facet normal 8.660254e-001 -5.000000e-001 0.000000e+000
      outer loop
         vertex 2.588190e+002 -9.659258e+002 -1.000000e+002
         vertex 9.659258e+002 2.588190e+002 -1.000000e+002
         vertex 2.588190e+002 -9.659258e+002 5.551115e-014
      endloop
   endfacet
   facet normal 8.660254e-001 -5.000000e-001 0.000000e+000
      outer loop
         vertex 2.588190e+002 -9.659258e+002 5.551115e-014
         vertex 9.659258e+002 2.588190e+002 -1.000000e+002
         vertex 9.659258e+002 2.588190e+002 5.551115e-014
      endloop
   endfacet
   facet normal -3.217179e-015 -1.000000e+000 0.000000e+000
      outer loop
         vertex -2.588190e+002 -9.659258e+002 -1.000000e+002
         vertex 2.588190e+002 -9.659258e+002 -1.000000e+002
         vertex -2.588190e+002 -9.659258e+002 0.000000e+000
      endloop
   endfacet
   facet normal -3.217179e-015 -1.000000e+000 0.000000e+000
      outer loop
         vertex -2.588190e+002 -9.659258e+002 0.000000e+000
         vertex 2.588190e+002 -9.659258e+002 -1.000000e+002
         vertex 2.588190e+002 -9.659258e+002 0.000000e+000
      endloop
   endfacet
   facet normal 0.000000e+000 0.000000e+000 -1.000000e+000
      outer loop
         vertex -7.071068e+002 7.071068e+002 -1.000000e+002
         vertex 7.071068e+002 7.071068e+002 -1.000000e+002
         vertex -9.659258e+002 2.588190e+002 -1.000000e+002
      endloop
   endfacet
   facet normal 0.000000e+000 0.000000e+000 -1.000000e+000
      outer loop
         vertex -9.659258e+002 2.588190e+002 -1.000000e+002
         vertex 7.071068e+002 7.071068e+002 -1.000000e+002
         vertex 9.659258e+002 2.588190e+002 -1.000000e+002
      endloop
   endfacet
   facet normal 0.000000e+000 0.000000e+000 -1.000000e+000
      outer loop
         vertex -9.659258e+002 2.588190e+002 -1.000000e+002
         vertex 9.659258e+002 2.588190e+002 -1.000000e+002
         vertex -2.588190e+002 -9.659258e+002 -1.000000e+002
      endloop
   endfacet
   facet normal 0.000000e+000 0.000000e+000 -1.000000e+000
      outer loop
         vertex -2.588190e+002 -9.659258e+002 -1.000000e+002
         vertex 9.659258e+002 2.588190e+002 -1.000000e+002
         vertex 2.588190e+002 -9.659258e+002 -1.000000e+002
      endloop
   endfacet
   facet normal 0.000000e+000 0.000000e+000 1.000000e+000
      outer loop
         vertex -2.588190e+002 -9.659258e+002 0.000000e+000
         vertex 2.588190e+002 -9.659258e+002 0.000000e+000
         vertex -9.659258e+002 2.588190e+002 0.000000e+000
      endloop
   endfacet
   facet normal 0.000000e+000 0.000000e+000 1.000000e+000
      outer loop
         vertex -9.659258e+002 2.588190e+002 0.000000e+000
         vertex 2.588190e+002 -9.659258e+002 0.000000e+000
         vertex 9.659258e+002 2.588190e+002 0.000000e+000
      endloop
   endfacet
   facet normal 0.000000e+000 0.000000e+000 1.000000e+000
      outer loop
         vertex -9.659258e+002 2.588190e+002 0.000000e+000
         vertex 9.659258e+002 2.588190e+002 0.000000e+000
         vertex -7.071068e+002 7.071068e+002 0.000000e+000
      endloop
   endfacet
   facet normal 0.000000e+000 0.000000e+000 1.000000e+000
      outer loop
         vertex -7.071068e+002 7.071068e+002 0.000000e+000
         vertex 9.659258e+002 2.588190e+002 0.000000e+000
         vertex 7.071068e+002 7.071068e+002 0.000000e+000
      endloop
   endfacet
endsolid